G04*
G04 #@! TF.GenerationSoftware,Altium Limited,Altium Designer,23.4.1 (23)*
G04*
G04 Layer_Color=8388736*
%FSLAX44Y44*%
%MOMM*%
G71*
G04*
G04 #@! TF.SameCoordinates,BCA9E1CE-4A97-460D-BDD0-9E38B293511F*
G04*
G04*
G04 #@! TF.FilePolarity,Negative*
G04*
G01*
G75*
%ADD37R,1.8542X0.9398*%
%ADD38R,1.3208X0.8128*%
G04:AMPARAMS|DCode=50|XSize=1.7032mm|YSize=2.2032mm|CornerRadius=0.2891mm|HoleSize=0mm|Usage=FLASHONLY|Rotation=270.000|XOffset=0mm|YOffset=0mm|HoleType=Round|Shape=RoundedRectangle|*
%AMROUNDEDRECTD50*
21,1,1.7032,1.6250,0,0,270.0*
21,1,1.1250,2.2032,0,0,270.0*
1,1,0.5782,-0.8125,-0.5625*
1,1,0.5782,-0.8125,0.5625*
1,1,0.5782,0.8125,0.5625*
1,1,0.5782,0.8125,-0.5625*
%
%ADD50ROUNDEDRECTD50*%
G04:AMPARAMS|DCode=51|XSize=4.0032mm|YSize=2.2032mm|CornerRadius=0.1516mm|HoleSize=0mm|Usage=FLASHONLY|Rotation=270.000|XOffset=0mm|YOffset=0mm|HoleType=Round|Shape=RoundedRectangle|*
%AMROUNDEDRECTD51*
21,1,4.0032,1.9000,0,0,270.0*
21,1,3.7000,2.2032,0,0,270.0*
1,1,0.3032,-0.9500,-1.8500*
1,1,0.3032,-0.9500,1.8500*
1,1,0.3032,0.9500,1.8500*
1,1,0.3032,0.9500,-1.8500*
%
%ADD51ROUNDEDRECTD51*%
G04:AMPARAMS|DCode=52|XSize=0.8032mm|YSize=1.3032mm|CornerRadius=0.1466mm|HoleSize=0mm|Usage=FLASHONLY|Rotation=90.000|XOffset=0mm|YOffset=0mm|HoleType=Round|Shape=RoundedRectangle|*
%AMROUNDEDRECTD52*
21,1,0.8032,1.0100,0,0,90.0*
21,1,0.5100,1.3032,0,0,90.0*
1,1,0.2932,0.5050,0.2550*
1,1,0.2932,0.5050,-0.2550*
1,1,0.2932,-0.5050,-0.2550*
1,1,0.2932,-0.5050,0.2550*
%
%ADD52ROUNDEDRECTD52*%
G04:AMPARAMS|DCode=53|XSize=1.1032mm|YSize=1.0032mm|CornerRadius=0.1616mm|HoleSize=0mm|Usage=FLASHONLY|Rotation=180.000|XOffset=0mm|YOffset=0mm|HoleType=Round|Shape=RoundedRectangle|*
%AMROUNDEDRECTD53*
21,1,1.1032,0.6800,0,0,180.0*
21,1,0.7800,1.0032,0,0,180.0*
1,1,0.3232,-0.3900,0.3400*
1,1,0.3232,0.3900,0.3400*
1,1,0.3232,0.3900,-0.3400*
1,1,0.3232,-0.3900,-0.3400*
%
%ADD53ROUNDEDRECTD53*%
G04:AMPARAMS|DCode=54|XSize=1.1032mm|YSize=1.0032mm|CornerRadius=0.1616mm|HoleSize=0mm|Usage=FLASHONLY|Rotation=270.000|XOffset=0mm|YOffset=0mm|HoleType=Round|Shape=RoundedRectangle|*
%AMROUNDEDRECTD54*
21,1,1.1032,0.6800,0,0,270.0*
21,1,0.7800,1.0032,0,0,270.0*
1,1,0.3232,-0.3400,-0.3900*
1,1,0.3232,-0.3400,0.3900*
1,1,0.3232,0.3400,0.3900*
1,1,0.3232,0.3400,-0.3900*
%
%ADD54ROUNDEDRECTD54*%
G04:AMPARAMS|DCode=55|XSize=0.7366mm|YSize=1.7032mm|CornerRadius=0.1683mm|HoleSize=0mm|Usage=FLASHONLY|Rotation=90.000|XOffset=0mm|YOffset=0mm|HoleType=Round|Shape=RoundedRectangle|*
%AMROUNDEDRECTD55*
21,1,0.7366,1.3667,0,0,90.0*
21,1,0.4001,1.7032,0,0,90.0*
1,1,0.3366,0.6833,0.2000*
1,1,0.3366,0.6833,-0.2000*
1,1,0.3366,-0.6833,-0.2000*
1,1,0.3366,-0.6833,0.2000*
%
%ADD55ROUNDEDRECTD55*%
%ADD56R,2.6032X3.4032*%
%ADD57R,5.2032X3.2032*%
%ADD58R,1.7018X3.5052*%
%ADD59R,4.3032X4.3032*%
G04:AMPARAMS|DCode=60|XSize=1.0032mm|YSize=1.1032mm|CornerRadius=0.1616mm|HoleSize=0mm|Usage=FLASHONLY|Rotation=0.000|XOffset=0mm|YOffset=0mm|HoleType=Round|Shape=RoundedRectangle|*
%AMROUNDEDRECTD60*
21,1,1.0032,0.7800,0,0,0.0*
21,1,0.6800,1.1032,0,0,0.0*
1,1,0.3232,0.3400,-0.3900*
1,1,0.3232,-0.3400,-0.3900*
1,1,0.3232,-0.3400,0.3900*
1,1,0.3232,0.3400,0.3900*
%
%ADD60ROUNDEDRECTD60*%
%ADD61R,0.7600X1.3100*%
%ADD62R,0.4600X1.3100*%
%ADD63O,1.0032X1.7032*%
%ADD64R,1.0032X1.7032*%
%ADD65R,1.1938X0.9144*%
%ADD66C,1.4032*%
%ADD67R,1.4032X2.0032*%
%ADD68O,1.4032X2.0032*%
%ADD69R,1.4712X1.4712*%
%ADD70C,1.4712*%
%ADD71C,3.4032*%
%ADD72C,1.7032*%
%ADD73R,1.7032X1.7032*%
%ADD74C,0.8532*%
%ADD75O,1.2032X2.1032*%
%ADD76O,1.2032X2.3032*%
%ADD77C,6.2032*%
D37*
X370221Y190000D02*
D03*
D38*
X392446D02*
D03*
D50*
X350000Y260000D02*
D03*
Y283000D02*
D03*
Y237000D02*
D03*
D51*
X412000Y260000D02*
D03*
D52*
X172500Y299500D02*
D03*
Y290000D02*
D03*
Y280500D02*
D03*
X199500D02*
D03*
Y290000D02*
D03*
Y299500D02*
D03*
D53*
X374500Y210000D02*
D03*
X391500D02*
D03*
X368500Y163000D02*
D03*
X351500D02*
D03*
X272500Y174000D02*
D03*
X255500D02*
D03*
X252500Y147000D02*
D03*
X235500D02*
D03*
X252500Y134000D02*
D03*
X235500D02*
D03*
X508500Y50000D02*
D03*
X491500D02*
D03*
D54*
X350000Y148500D02*
D03*
Y131500D02*
D03*
X370000D02*
D03*
Y148500D02*
D03*
X320000Y261500D02*
D03*
Y278500D02*
D03*
D55*
X327000Y133651D02*
D03*
Y146351D02*
D03*
Y159051D02*
D03*
Y120951D02*
D03*
X273000D02*
D03*
Y133651D02*
D03*
Y146351D02*
D03*
Y159051D02*
D03*
D56*
X300000Y140000D02*
D03*
D57*
X200000Y242000D02*
D03*
Y158000D02*
D03*
D58*
X170000Y26980D02*
D03*
Y93020D02*
D03*
X430000D02*
D03*
Y26980D02*
D03*
D59*
X347500Y60000D02*
D03*
X252500D02*
D03*
D60*
X227500Y320000D02*
D03*
X212500D02*
D03*
X227500Y350000D02*
D03*
X212500D02*
D03*
X227500Y380000D02*
D03*
X212500D02*
D03*
X507500Y30000D02*
D03*
X492500D02*
D03*
D61*
X98001Y335186D02*
D03*
X106000D02*
D03*
X154001D02*
D03*
X161999D02*
D03*
D62*
X117501D02*
D03*
X122499D02*
D03*
X127500D02*
D03*
X132499D02*
D03*
X137500D02*
D03*
X142499D02*
D03*
X147501D02*
D03*
X112500D02*
D03*
D63*
X512700Y367000D02*
D03*
X500000D02*
D03*
X487300D02*
D03*
D64*
X474600Y367000D02*
D03*
D65*
X442500Y309250D02*
D03*
X397500D02*
D03*
X442500Y330750D02*
D03*
X397500D02*
D03*
Y380750D02*
D03*
X442500D02*
D03*
X397500Y359250D02*
D03*
X442500D02*
D03*
D66*
X490000Y70000D02*
D03*
D67*
X310000Y307000D02*
D03*
D68*
X290000D02*
D03*
D69*
X486500Y155550D02*
D03*
X113500Y244450D02*
D03*
D70*
X461100Y168250D02*
D03*
X486500Y180950D02*
D03*
X461100Y193650D02*
D03*
X486500Y206350D02*
D03*
X461100Y219050D02*
D03*
X486500Y231750D02*
D03*
X461100Y244450D02*
D03*
X138900Y155550D02*
D03*
X113500Y168250D02*
D03*
X138900Y180950D02*
D03*
X113500Y193650D02*
D03*
X138900Y206350D02*
D03*
X113500Y219050D02*
D03*
X138900Y231750D02*
D03*
D71*
X550000Y142850D02*
D03*
Y257150D02*
D03*
X50000Y142850D02*
D03*
Y257150D02*
D03*
D72*
X300000Y375400D02*
D03*
X274600Y375400D02*
D03*
X274600Y350000D02*
D03*
X300000D02*
D03*
X325400D02*
D03*
D73*
X325400Y375400D02*
D03*
D74*
X101099Y347813D02*
D03*
X158899D02*
D03*
D75*
X86749Y384814D02*
D03*
X173251D02*
D03*
D76*
X86749Y342814D02*
D03*
X173251D02*
D03*
D77*
X560000Y40000D02*
D03*
X559999Y360000D02*
D03*
X40000Y40000D02*
D03*
Y360000D02*
D03*
M02*
