G04*
G04 #@! TF.GenerationSoftware,Altium Limited,Altium Designer,23.4.1 (23)*
G04*
G04 Layer_Physical_Order=1*
G04 Layer_Color=255*
%FSLAX44Y44*%
%MOMM*%
G71*
G04*
G04 #@! TF.SameCoordinates,BCA9E1CE-4A97-460D-BDD0-9E38B293511F*
G04*
G04*
G04 #@! TF.FilePolarity,Positive*
G04*
G01*
G75*
%ADD10C,0.2000*%
%ADD16R,0.8000X1.5000*%
G04:AMPARAMS|DCode=33|XSize=1.5mm|YSize=2mm|CornerRadius=0.1875mm|HoleSize=0mm|Usage=FLASHONLY|Rotation=270.000|XOffset=0mm|YOffset=0mm|HoleType=Round|Shape=RoundedRectangle|*
%AMROUNDEDRECTD33*
21,1,1.5000,1.6250,0,0,270.0*
21,1,1.1250,2.0000,0,0,270.0*
1,1,0.3750,-0.8125,-0.5625*
1,1,0.3750,-0.8125,0.5625*
1,1,0.3750,0.8125,0.5625*
1,1,0.3750,0.8125,-0.5625*
%
%ADD33ROUNDEDRECTD33*%
G04:AMPARAMS|DCode=34|XSize=3.8mm|YSize=2mm|CornerRadius=0.05mm|HoleSize=0mm|Usage=FLASHONLY|Rotation=270.000|XOffset=0mm|YOffset=0mm|HoleType=Round|Shape=RoundedRectangle|*
%AMROUNDEDRECTD34*
21,1,3.8000,1.9000,0,0,270.0*
21,1,3.7000,2.0000,0,0,270.0*
1,1,0.1000,-0.9500,-1.8500*
1,1,0.1000,-0.9500,1.8500*
1,1,0.1000,0.9500,1.8500*
1,1,0.1000,0.9500,-1.8500*
%
%ADD34ROUNDEDRECTD34*%
G04:AMPARAMS|DCode=35|XSize=0.6mm|YSize=1.1mm|CornerRadius=0.045mm|HoleSize=0mm|Usage=FLASHONLY|Rotation=90.000|XOffset=0mm|YOffset=0mm|HoleType=Round|Shape=RoundedRectangle|*
%AMROUNDEDRECTD35*
21,1,0.6000,1.0100,0,0,90.0*
21,1,0.5100,1.1000,0,0,90.0*
1,1,0.0900,0.5050,0.2550*
1,1,0.0900,0.5050,-0.2550*
1,1,0.0900,-0.5050,-0.2550*
1,1,0.0900,-0.5050,0.2550*
%
%ADD35ROUNDEDRECTD35*%
G04:AMPARAMS|DCode=36|XSize=0.9mm|YSize=0.8mm|CornerRadius=0.06mm|HoleSize=0mm|Usage=FLASHONLY|Rotation=180.000|XOffset=0mm|YOffset=0mm|HoleType=Round|Shape=RoundedRectangle|*
%AMROUNDEDRECTD36*
21,1,0.9000,0.6800,0,0,180.0*
21,1,0.7800,0.8000,0,0,180.0*
1,1,0.1200,-0.3900,0.3400*
1,1,0.1200,0.3900,0.3400*
1,1,0.1200,0.3900,-0.3400*
1,1,0.1200,-0.3900,-0.3400*
%
%ADD36ROUNDEDRECTD36*%
%ADD37R,1.8542X0.9398*%
%ADD38R,1.3208X0.8128*%
G04:AMPARAMS|DCode=39|XSize=0.9mm|YSize=0.8mm|CornerRadius=0.06mm|HoleSize=0mm|Usage=FLASHONLY|Rotation=270.000|XOffset=0mm|YOffset=0mm|HoleType=Round|Shape=RoundedRectangle|*
%AMROUNDEDRECTD39*
21,1,0.9000,0.6800,0,0,270.0*
21,1,0.7800,0.8000,0,0,270.0*
1,1,0.1200,-0.3400,-0.3900*
1,1,0.1200,-0.3400,0.3900*
1,1,0.1200,0.3400,0.3900*
1,1,0.1200,0.3400,-0.3900*
%
%ADD39ROUNDEDRECTD39*%
G04:AMPARAMS|DCode=40|XSize=0.5334mm|YSize=1.5mm|CornerRadius=0.0667mm|HoleSize=0mm|Usage=FLASHONLY|Rotation=90.000|XOffset=0mm|YOffset=0mm|HoleType=Round|Shape=RoundedRectangle|*
%AMROUNDEDRECTD40*
21,1,0.5334,1.3667,0,0,90.0*
21,1,0.4001,1.5000,0,0,90.0*
1,1,0.1333,0.6833,0.2000*
1,1,0.1333,0.6833,-0.2000*
1,1,0.1333,-0.6833,-0.2000*
1,1,0.1333,-0.6833,0.2000*
%
%ADD40ROUNDEDRECTD40*%
%ADD41R,2.4000X3.2000*%
%ADD42R,5.0000X3.0000*%
%ADD43R,1.4986X3.3020*%
%ADD44R,4.1000X4.1000*%
G04:AMPARAMS|DCode=45|XSize=0.8mm|YSize=0.9mm|CornerRadius=0.06mm|HoleSize=0mm|Usage=FLASHONLY|Rotation=0.000|XOffset=0mm|YOffset=0mm|HoleType=Round|Shape=RoundedRectangle|*
%AMROUNDEDRECTD45*
21,1,0.8000,0.7800,0,0,0.0*
21,1,0.6800,0.9000,0,0,0.0*
1,1,0.1200,0.3400,-0.3900*
1,1,0.1200,-0.3400,-0.3900*
1,1,0.1200,-0.3400,0.3900*
1,1,0.1200,0.3400,0.3900*
%
%ADD45ROUNDEDRECTD45*%
%ADD46R,0.6000X1.1500*%
%ADD47R,0.3000X1.1500*%
%ADD48O,0.8000X1.5000*%
%ADD49R,0.9906X0.7112*%
%ADD78C,1.0000*%
%ADD79C,0.5000*%
%ADD80C,0.1816*%
%ADD81C,0.2500*%
%ADD82C,0.4000*%
%ADD83C,0.5000*%
%ADD84C,1.2000*%
%ADD85R,1.2000X1.8000*%
%ADD86O,1.2000X1.8000*%
%ADD87R,1.2680X1.2680*%
%ADD88C,1.2680*%
%ADD89C,3.2000*%
%ADD90C,1.5000*%
%ADD91R,1.5000X1.5000*%
%ADD92C,0.6500*%
%ADD93O,1.0000X1.9000*%
%ADD94O,1.0000X2.1000*%
%ADD95C,6.0000*%
%ADD96C,1.0000*%
G36*
X572131Y397396D02*
X576194Y396307D01*
X580080Y394698D01*
X583723Y392595D01*
X587060Y390034D01*
X590034Y387060D01*
X592595Y383723D01*
X594698Y380080D01*
X596307Y376194D01*
X597396Y372131D01*
X597945Y367961D01*
Y365858D01*
X597945Y34142D01*
Y32039D01*
X597396Y27869D01*
X596307Y23806D01*
X594698Y19920D01*
X592595Y16277D01*
X590034Y12940D01*
X587060Y9966D01*
X583723Y7405D01*
X580080Y5302D01*
X576194Y3693D01*
X572131Y2604D01*
X567961Y2055D01*
X565858Y2055D01*
X40000Y2055D01*
X34142Y2055D01*
X32039D01*
X27869Y2604D01*
X23806Y3692D01*
X19920Y5302D01*
X16277Y7405D01*
X12940Y9966D01*
X9966Y12940D01*
X7405Y16277D01*
X5302Y19920D01*
X3692Y23806D01*
X2604Y27869D01*
X2055Y32039D01*
Y34142D01*
Y365858D01*
Y367961D01*
X2604Y372131D01*
X3692Y376194D01*
X5302Y380080D01*
X7405Y383723D01*
X9966Y387060D01*
X12940Y390034D01*
X16277Y392595D01*
X19920Y394698D01*
X23806Y396307D01*
X27869Y397396D01*
X32039Y397945D01*
X567961D01*
X572131Y397396D01*
D02*
G37*
%LPC*%
G36*
X88749Y395846D02*
Y386814D01*
X93608D01*
Y389314D01*
X93374Y391089D01*
X92689Y392743D01*
X91599Y394164D01*
X90178Y395254D01*
X88749Y395846D01*
D02*
G37*
G36*
X175251D02*
Y386814D01*
X180110D01*
Y389314D01*
X179876Y391089D01*
X179191Y392743D01*
X178101Y394164D01*
X176680Y395254D01*
X175251Y395846D01*
D02*
G37*
G36*
X84749Y395846D02*
X83320Y395254D01*
X81899Y394164D01*
X80809Y392743D01*
X80124Y391089D01*
X79890Y389314D01*
Y386814D01*
X84749D01*
Y395846D01*
D02*
G37*
G36*
X171251D02*
X169822Y395254D01*
X168401Y394164D01*
X167311Y392743D01*
X166626Y391089D01*
X166392Y389314D01*
Y386814D01*
X171251D01*
Y395846D01*
D02*
G37*
G36*
X449253Y386106D02*
X444500D01*
Y382750D01*
X449253D01*
Y386106D01*
D02*
G37*
G36*
X440500D02*
X435747D01*
Y382750D01*
X440500D01*
Y386106D01*
D02*
G37*
G36*
X210500Y386347D02*
X209100D01*
X208164Y386161D01*
X207370Y385630D01*
X206839Y384836D01*
X206653Y383900D01*
Y382000D01*
X210500D01*
Y386347D01*
D02*
G37*
G36*
X276600Y384492D02*
Y377400D01*
X283692D01*
X283267Y378989D01*
X282042Y381110D01*
X280311Y382842D01*
X278190Y384066D01*
X276600Y384492D01*
D02*
G37*
G36*
X272600Y384492D02*
X271011Y384066D01*
X268890Y382842D01*
X267159Y381110D01*
X265934Y378989D01*
X265508Y377400D01*
X272600D01*
Y384492D01*
D02*
G37*
G36*
X403703Y385556D02*
X391297D01*
Y375944D01*
X403703D01*
Y385556D01*
D02*
G37*
G36*
X449253Y378750D02*
X444500D01*
Y375394D01*
X449253D01*
Y378750D01*
D02*
G37*
G36*
X440500D02*
X435747D01*
Y375394D01*
X440500D01*
Y378750D01*
D02*
G37*
G36*
X215900Y386347D02*
X214500D01*
Y380000D01*
Y373653D01*
X215900D01*
X216836Y373839D01*
X217630Y374370D01*
X218161Y375164D01*
X218228Y375500D01*
X222333D01*
X222357Y375378D01*
X222766Y374766D01*
X223378Y374357D01*
X224100Y374214D01*
X230900D01*
X231622Y374357D01*
X232234Y374766D01*
X232643Y375378D01*
X232786Y376100D01*
Y376176D01*
X237000D01*
X237369Y376250D01*
X237746D01*
X238094Y376394D01*
X238463Y376468D01*
X238776Y376677D01*
X239124Y376821D01*
X239391Y377087D01*
X239704Y377296D01*
X239913Y377610D01*
X240179Y377876D01*
X240323Y378224D01*
X240532Y378537D01*
X240606Y378906D01*
X240750Y379254D01*
Y379631D01*
X240823Y380000D01*
X240750Y380369D01*
Y380746D01*
X240606Y381094D01*
X240532Y381463D01*
X240323Y381776D01*
X240179Y382124D01*
X239913Y382390D01*
X239704Y382704D01*
X239391Y382913D01*
X239124Y383179D01*
X238776Y383323D01*
X238463Y383532D01*
X238094Y383606D01*
X237746Y383750D01*
X237369D01*
X237000Y383824D01*
X232786D01*
Y383900D01*
X232643Y384622D01*
X232234Y385234D01*
X231622Y385643D01*
X230900Y385786D01*
X224100D01*
X223378Y385643D01*
X222766Y385234D01*
X222357Y384622D01*
X222333Y384500D01*
X218228D01*
X218161Y384836D01*
X217630Y385630D01*
X216836Y386161D01*
X215900Y386347D01*
D02*
G37*
G36*
X84749Y382814D02*
X79890D01*
Y380314D01*
X80124Y378539D01*
X80809Y376885D01*
X81899Y375464D01*
X83320Y374374D01*
X84749Y373782D01*
Y382814D01*
D02*
G37*
G36*
X171251D02*
X166392D01*
Y380314D01*
X166626Y378539D01*
X167311Y376885D01*
X168401Y375464D01*
X169822Y374374D01*
X171251Y373782D01*
Y382814D01*
D02*
G37*
G36*
X180110D02*
X175251D01*
Y373782D01*
X176680Y374374D01*
X178101Y375464D01*
X179191Y376885D01*
X179876Y378539D01*
X180110Y380314D01*
Y382814D01*
D02*
G37*
G36*
X93608D02*
X88749D01*
Y373782D01*
X90178Y374374D01*
X91599Y375464D01*
X92689Y376885D01*
X93374Y378539D01*
X93608Y380314D01*
Y382814D01*
D02*
G37*
G36*
X210500Y378000D02*
X206653D01*
Y376100D01*
X206839Y375164D01*
X207370Y374370D01*
X208164Y373839D01*
X209100Y373653D01*
X210500D01*
Y378000D01*
D02*
G37*
G36*
X480400Y376300D02*
X476600D01*
Y369000D01*
X480400D01*
Y376300D01*
D02*
G37*
G36*
X472600D02*
X468800D01*
Y369000D01*
X472600D01*
Y376300D01*
D02*
G37*
G36*
X334150Y384150D02*
X316650D01*
Y366650D01*
X334150D01*
Y384150D01*
D02*
G37*
G36*
X301154Y384170D02*
X298845D01*
X296614Y383573D01*
X294615Y382418D01*
X292982Y380785D01*
X291827Y378785D01*
X291230Y376555D01*
Y374246D01*
X291827Y372015D01*
X292982Y370015D01*
X294615Y368382D01*
X296614Y367228D01*
X298845Y366630D01*
X301154D01*
X303385Y367228D01*
X305385Y368382D01*
X307017Y370015D01*
X308172Y372015D01*
X308770Y374246D01*
Y376555D01*
X308172Y378785D01*
X307017Y380785D01*
X305385Y382418D01*
X303385Y383573D01*
X301154Y384170D01*
D02*
G37*
G36*
X272600Y373400D02*
X265508D01*
X265934Y371810D01*
X267159Y369689D01*
X268890Y367958D01*
X271011Y366734D01*
X272600Y366308D01*
Y373400D01*
D02*
G37*
G36*
X283692D02*
X276600D01*
Y366308D01*
X278190Y366734D01*
X280311Y367958D01*
X282042Y369689D01*
X283267Y371810D01*
X283692Y373400D01*
D02*
G37*
G36*
X42503Y391800D02*
X42000D01*
Y362000D01*
X71800D01*
Y362503D01*
X71017Y367447D01*
X69470Y372207D01*
X67198Y376667D01*
X64256Y380716D01*
X60716Y384256D01*
X56667Y387198D01*
X52207Y389470D01*
X47446Y391017D01*
X42503Y391800D01*
D02*
G37*
G36*
X38000D02*
X37497D01*
X32554Y391017D01*
X27793Y389470D01*
X23333Y387198D01*
X19284Y384256D01*
X15744Y380716D01*
X12802Y376667D01*
X10530Y372207D01*
X8983Y367447D01*
X8200Y362503D01*
Y362000D01*
X38000D01*
Y391800D01*
D02*
G37*
G36*
X562502Y391800D02*
X561999D01*
Y362000D01*
X591799D01*
Y362502D01*
X591016Y367446D01*
X589469Y372206D01*
X587197Y376666D01*
X584255Y380716D01*
X580715Y384255D01*
X576666Y387197D01*
X572206Y389470D01*
X567445Y391017D01*
X562502Y391800D01*
D02*
G37*
G36*
X557999D02*
X557496D01*
X552552Y391017D01*
X547792Y389470D01*
X543332Y387197D01*
X539283Y384255D01*
X535743Y380716D01*
X532801Y376666D01*
X530529Y372206D01*
X528982Y367446D01*
X528199Y362502D01*
Y362000D01*
X557999D01*
Y391800D01*
D02*
G37*
G36*
X480400Y365000D02*
X476600D01*
Y357700D01*
X480400D01*
Y365000D01*
D02*
G37*
G36*
X472600D02*
X468800D01*
Y357700D01*
X472600D01*
Y365000D01*
D02*
G37*
G36*
X420746Y364750D02*
X419254D01*
X417876Y364179D01*
X416821Y363124D01*
X416250Y361746D01*
Y360254D01*
X416821Y358876D01*
X417876Y357821D01*
X419254Y357250D01*
X420693D01*
X420872Y357131D01*
X421750Y356956D01*
X436297D01*
Y354444D01*
X448703D01*
Y364056D01*
X436297D01*
Y361544D01*
X423750D01*
Y361746D01*
X423179Y363124D01*
X422124Y364179D01*
X420746Y364750D01*
D02*
G37*
G36*
X403703Y364056D02*
X391297D01*
Y354444D01*
X403703D01*
Y364056D01*
D02*
G37*
G36*
X210500Y356347D02*
X209100D01*
X208164Y356161D01*
X207370Y355630D01*
X206839Y354836D01*
X206653Y353900D01*
Y352000D01*
X210500D01*
Y356347D01*
D02*
G37*
G36*
X276600Y359092D02*
Y352000D01*
X283692D01*
X283266Y353590D01*
X282042Y355710D01*
X280310Y357442D01*
X278190Y358666D01*
X276600Y359092D01*
D02*
G37*
G36*
X272600Y359092D02*
X271010Y358666D01*
X268890Y357442D01*
X267158Y355710D01*
X265934Y353590D01*
X265508Y352000D01*
X272600D01*
Y359092D01*
D02*
G37*
G36*
X175251Y354846D02*
Y344814D01*
X180110D01*
Y348314D01*
X179876Y350089D01*
X179191Y351743D01*
X178101Y353164D01*
X176680Y354254D01*
X175251Y354846D01*
D02*
G37*
G36*
X84749Y354846D02*
X83320Y354254D01*
X81899Y353164D01*
X80809Y351743D01*
X80124Y350089D01*
X79890Y348314D01*
Y344814D01*
X84749D01*
Y354846D01*
D02*
G37*
G36*
X215900Y356347D02*
X214500D01*
Y350000D01*
Y343653D01*
X215900D01*
X216836Y343839D01*
X217630Y344370D01*
X218161Y345164D01*
X218228Y345500D01*
X222333D01*
X222357Y345378D01*
X222766Y344766D01*
X223378Y344357D01*
X224100Y344214D01*
X230900D01*
X231622Y344357D01*
X232234Y344766D01*
X232643Y345378D01*
X232786Y346100D01*
Y346176D01*
X237000D01*
X237369Y346250D01*
X237746D01*
X238094Y346394D01*
X238463Y346468D01*
X238776Y346677D01*
X239124Y346821D01*
X239391Y347087D01*
X239704Y347296D01*
X239913Y347610D01*
X240179Y347876D01*
X240323Y348224D01*
X240532Y348537D01*
X240606Y348906D01*
X240750Y349254D01*
Y349631D01*
X240823Y350000D01*
X240750Y350369D01*
Y350746D01*
X240606Y351094D01*
X240532Y351463D01*
X240323Y351776D01*
X240179Y352124D01*
X239913Y352391D01*
X239704Y352704D01*
X239391Y352913D01*
X239124Y353179D01*
X238776Y353323D01*
X238463Y353532D01*
X238094Y353606D01*
X237746Y353750D01*
X237369D01*
X237000Y353824D01*
X232786D01*
Y353900D01*
X232643Y354622D01*
X232234Y355234D01*
X231622Y355643D01*
X230900Y355786D01*
X224100D01*
X223378Y355643D01*
X222766Y355234D01*
X222357Y354622D01*
X222333Y354500D01*
X218228D01*
X218161Y354836D01*
X217630Y355630D01*
X216836Y356161D01*
X215900Y356347D01*
D02*
G37*
G36*
X210500Y348000D02*
X206653D01*
Y346100D01*
X206839Y345164D01*
X207370Y344370D01*
X208164Y343839D01*
X209100Y343653D01*
X210500D01*
Y348000D01*
D02*
G37*
G36*
X326552Y358750D02*
X324248D01*
X322023Y358154D01*
X320027Y357002D01*
X318398Y355373D01*
X317246Y353377D01*
X316650Y351152D01*
Y348848D01*
X317246Y346623D01*
X318398Y344627D01*
X320027Y342998D01*
X322023Y341846D01*
X324248Y341250D01*
X326552D01*
X328777Y341846D01*
X330773Y342998D01*
X332402Y344627D01*
X333554Y346623D01*
X334150Y348848D01*
Y351152D01*
X333554Y353377D01*
X332402Y355373D01*
X330773Y357002D01*
X328777Y358154D01*
X326552Y358750D01*
D02*
G37*
G36*
X301155Y358770D02*
X298845D01*
X296615Y358172D01*
X294615Y357018D01*
X292982Y355385D01*
X291828Y353385D01*
X291230Y351155D01*
Y348845D01*
X291828Y346615D01*
X292982Y344615D01*
X294615Y342982D01*
X296615Y341828D01*
X298845Y341230D01*
X301155D01*
X303385Y341828D01*
X305385Y342982D01*
X307018Y344615D01*
X308172Y346615D01*
X308770Y348845D01*
Y351155D01*
X308172Y353385D01*
X307018Y355385D01*
X305385Y357018D01*
X303385Y358172D01*
X301155Y358770D01*
D02*
G37*
G36*
X283692Y348000D02*
X276600D01*
Y340908D01*
X278190Y341334D01*
X280310Y342558D01*
X282042Y344290D01*
X283266Y346410D01*
X283692Y348000D01*
D02*
G37*
G36*
X272600D02*
X265508D01*
X265934Y346410D01*
X267158Y344290D01*
X268890Y342558D01*
X271010Y341334D01*
X272600Y340908D01*
Y348000D01*
D02*
G37*
G36*
X84749Y340814D02*
X79890D01*
Y337314D01*
X80124Y335539D01*
X80809Y333885D01*
X81899Y332464D01*
X83320Y331374D01*
X84749Y330782D01*
Y340814D01*
D02*
G37*
G36*
X88749Y354846D02*
Y342814D01*
Y330782D01*
X90178Y331374D01*
X91599Y332464D01*
X91931Y332898D01*
X93201Y332467D01*
Y327636D01*
X96001D01*
Y335186D01*
X100001D01*
Y327636D01*
X102686D01*
Y325799D01*
X102250Y324746D01*
Y323254D01*
X102821Y321876D01*
X103876Y320821D01*
X105254Y320250D01*
X106746D01*
X108124Y320821D01*
X108899Y321596D01*
X110079Y321354D01*
X110229Y321267D01*
X110321Y320625D01*
X109821Y320124D01*
X109250Y318746D01*
Y317254D01*
X109821Y315876D01*
X110300Y315397D01*
Y296500D01*
X110468Y295658D01*
X110944Y294944D01*
X126944Y278944D01*
X127658Y278467D01*
X128500Y278300D01*
X165717D01*
Y277950D01*
X165849Y277287D01*
X166224Y276724D01*
X166787Y276349D01*
X167450Y276217D01*
X177550D01*
X178213Y276349D01*
X178776Y276724D01*
X179151Y277287D01*
X179283Y277950D01*
Y283050D01*
X179151Y283713D01*
X178833Y284190D01*
X178810Y284254D01*
X178788Y284370D01*
X178955Y285683D01*
X179172Y285828D01*
X179669Y286572D01*
X179844Y287450D01*
Y288000D01*
X172500D01*
X165156D01*
Y287450D01*
X165331Y286572D01*
X165828Y285828D01*
X166045Y285683D01*
X166212Y284370D01*
X166190Y284254D01*
X166167Y284190D01*
X165849Y283713D01*
X165717Y283050D01*
Y282700D01*
X129411D01*
X114701Y297411D01*
Y314646D01*
X115124Y314821D01*
X116179Y315876D01*
X116750Y317254D01*
Y318746D01*
X116179Y320124D01*
X115124Y321179D01*
X114951Y321251D01*
Y328186D01*
X120299D01*
Y327501D01*
X120466Y326659D01*
X120943Y325945D01*
X123444Y323444D01*
X123444Y323444D01*
X124158Y322967D01*
X125000Y322800D01*
X131332D01*
X131424Y322337D01*
X131901Y321623D01*
X138166Y315358D01*
X138880Y314881D01*
X139722Y314713D01*
X139722Y314713D01*
X174810D01*
X182800Y306724D01*
Y303911D01*
X180589Y301700D01*
X179283D01*
Y302050D01*
X179151Y302713D01*
X178776Y303276D01*
X178213Y303651D01*
X177550Y303783D01*
X167450D01*
X166787Y303651D01*
X166224Y303276D01*
X165849Y302713D01*
X165717Y302050D01*
Y296950D01*
X165849Y296287D01*
X166167Y295810D01*
X166190Y295746D01*
X166212Y295630D01*
X166045Y294317D01*
X165828Y294172D01*
X165331Y293428D01*
X165156Y292550D01*
Y292000D01*
X172500D01*
X179844D01*
Y292550D01*
X179669Y293428D01*
X179172Y294172D01*
X178955Y294317D01*
X178788Y295630D01*
X178810Y295746D01*
X178833Y295810D01*
X179151Y296287D01*
X179283Y296950D01*
Y297300D01*
X181500D01*
X181530Y297306D01*
X182800Y296362D01*
Y272635D01*
X182967Y271793D01*
X183444Y271080D01*
X192166Y262358D01*
X192880Y261881D01*
X193722Y261713D01*
X193722Y261713D01*
X228810D01*
X254498Y236026D01*
X254498Y236026D01*
X255212Y235549D01*
X256054Y235382D01*
X263250D01*
Y235254D01*
X263821Y233876D01*
X264876Y232821D01*
X266254Y232250D01*
X267746D01*
X269124Y232821D01*
X270179Y233876D01*
X270750Y235254D01*
Y236746D01*
X270179Y238124D01*
X269178Y239125D01*
X270179Y240126D01*
X270750Y241504D01*
Y242996D01*
X270179Y244374D01*
X269124Y245429D01*
X267746Y246000D01*
X266254D01*
X264876Y245429D01*
X263821Y244374D01*
X263250Y242996D01*
Y242868D01*
X258243D01*
X232556Y268556D01*
X231842Y269033D01*
X231000Y269200D01*
X195911D01*
X190287Y274825D01*
Y296304D01*
X191447Y297256D01*
X192717Y297087D01*
Y296950D01*
X192849Y296287D01*
X193224Y295724D01*
X193674Y295424D01*
X193735Y294750D01*
X193674Y294076D01*
X193224Y293776D01*
X192849Y293213D01*
X192717Y292550D01*
Y287450D01*
X192849Y286787D01*
X193224Y286224D01*
X193674Y285924D01*
X193735Y285250D01*
X193674Y284576D01*
X193224Y284276D01*
X192849Y283713D01*
X192717Y283050D01*
Y277950D01*
X192849Y277287D01*
X193224Y276724D01*
X193787Y276349D01*
X194450Y276217D01*
X204550D01*
X205213Y276349D01*
X205776Y276724D01*
X206151Y277287D01*
X206283Y277950D01*
Y278206D01*
X216520D01*
X217398Y278381D01*
X218142Y278878D01*
X220996Y281732D01*
X221494Y282477D01*
X221668Y283354D01*
Y295711D01*
X221494Y296589D01*
X220996Y297333D01*
X192707Y325622D01*
X191963Y326119D01*
X191085Y326294D01*
X147094D01*
X146581Y326940D01*
X147136Y328186D01*
X157199D01*
Y327636D01*
X159999D01*
Y335186D01*
X163999D01*
Y327636D01*
X166799D01*
Y332466D01*
X168069Y332897D01*
X168401Y332464D01*
X169822Y331374D01*
X171251Y330782D01*
Y342814D01*
Y354846D01*
X169822Y354254D01*
X168401Y353164D01*
X167311Y351743D01*
X166626Y350089D01*
X166392Y348314D01*
Y342736D01*
X161719D01*
X161456Y343960D01*
X161456Y344006D01*
X162714Y345264D01*
X163399Y346918D01*
Y348708D01*
X162714Y350362D01*
X161448Y351628D01*
X159794Y352313D01*
X158004D01*
X156350Y351628D01*
X155084Y350362D01*
X154509Y348974D01*
X153226Y348461D01*
X148343Y353343D01*
X147268Y354061D01*
X146000Y354314D01*
X138799D01*
X137746Y354750D01*
X136254D01*
X135201Y354314D01*
X120799D01*
X119746Y354750D01*
X118254D01*
X117201Y354314D01*
X114000D01*
X112732Y354061D01*
X111657Y353343D01*
X106772Y348458D01*
X105489Y348972D01*
X104914Y350362D01*
X103648Y351628D01*
X101994Y352313D01*
X100204D01*
X98550Y351628D01*
X97284Y350362D01*
X96599Y348708D01*
Y346918D01*
X97284Y345264D01*
X98542Y344006D01*
X98541Y343960D01*
X98278Y342736D01*
X93608D01*
Y348314D01*
X93374Y350089D01*
X92689Y351743D01*
X91599Y353164D01*
X90178Y354254D01*
X88749Y354846D01*
D02*
G37*
G36*
X180110Y340814D02*
X175251D01*
Y330782D01*
X176680Y331374D01*
X178101Y332464D01*
X179191Y333885D01*
X179876Y335539D01*
X180110Y337314D01*
Y340814D01*
D02*
G37*
G36*
X71800Y358000D02*
X42000D01*
Y328200D01*
X42503D01*
X47446Y328983D01*
X52207Y330530D01*
X56667Y332802D01*
X60716Y335744D01*
X64256Y339284D01*
X67198Y343333D01*
X69470Y347793D01*
X71017Y352553D01*
X71800Y357497D01*
Y358000D01*
D02*
G37*
G36*
X38000D02*
X8200D01*
Y357497D01*
X8983Y352553D01*
X10530Y347793D01*
X12802Y343333D01*
X15744Y339284D01*
X19284Y335744D01*
X23333Y332802D01*
X27793Y330530D01*
X32554Y328983D01*
X37497Y328200D01*
X38000D01*
Y358000D01*
D02*
G37*
G36*
X591799Y357999D02*
X561999D01*
Y328200D01*
X562502D01*
X567445Y328983D01*
X572206Y330529D01*
X576666Y332802D01*
X580715Y335744D01*
X584255Y339283D01*
X587197Y343333D01*
X589469Y347793D01*
X591016Y352553D01*
X591799Y357497D01*
Y357999D01*
D02*
G37*
G36*
X557999D02*
X528199D01*
Y357497D01*
X528982Y352553D01*
X530529Y347793D01*
X532801Y343333D01*
X535743Y339283D01*
X539283Y335744D01*
X543332Y332802D01*
X547792Y330529D01*
X552552Y328983D01*
X557496Y328200D01*
X557999D01*
Y357999D01*
D02*
G37*
G36*
X448703Y335556D02*
X436297D01*
Y325944D01*
X448703D01*
Y335556D01*
D02*
G37*
G36*
X500000Y375853D02*
X497951Y375446D01*
X496215Y374285D01*
X495054Y372548D01*
X494647Y370500D01*
Y363500D01*
X495054Y361452D01*
X496215Y359715D01*
X497705Y358719D01*
Y323950D01*
X496050Y322294D01*
X349000D01*
X348122Y322119D01*
X347378Y321622D01*
X342506Y316750D01*
X341254D01*
X340783Y316555D01*
X340064Y317632D01*
X350888Y328456D01*
X391297D01*
Y325944D01*
X403703D01*
Y328456D01*
X416250D01*
Y328254D01*
X416821Y326876D01*
X417876Y325821D01*
X419254Y325250D01*
X420746D01*
X422124Y325821D01*
X423179Y326876D01*
X423750Y328254D01*
Y329746D01*
X423179Y331124D01*
X422124Y332179D01*
X420746Y332750D01*
X419307D01*
X419128Y332869D01*
X418250Y333044D01*
X403703D01*
Y335556D01*
X391297D01*
Y333044D01*
X349938D01*
X349060Y332869D01*
X348316Y332372D01*
X334162Y318219D01*
X333665Y317474D01*
X333564Y316967D01*
X332294Y317092D01*
Y321241D01*
X351759Y340706D01*
X483000D01*
X483878Y340881D01*
X484622Y341378D01*
X488922Y345677D01*
X489419Y346422D01*
X489594Y347300D01*
Y358719D01*
X491085Y359715D01*
X492245Y361452D01*
X492652Y363500D01*
Y370500D01*
X492245Y372548D01*
X491085Y374285D01*
X489348Y375446D01*
X487300Y375853D01*
X485251Y375446D01*
X483515Y374285D01*
X482354Y372548D01*
X481947Y370500D01*
Y363500D01*
X482354Y361452D01*
X483515Y359715D01*
X485005Y358719D01*
Y348250D01*
X482050Y345294D01*
X350808D01*
X349931Y345120D01*
X349186Y344622D01*
X328378Y323814D01*
X327881Y323069D01*
X327706Y322192D01*
Y293009D01*
X326821Y292124D01*
X326250Y290746D01*
Y289254D01*
X326821Y287876D01*
X327876Y286821D01*
X329254Y286250D01*
X330746D01*
X332124Y286821D01*
X332220Y286917D01*
X333490Y286391D01*
Y283769D01*
X332746Y282750D01*
X331254D01*
X329876Y282179D01*
X328821Y281124D01*
X328250Y279746D01*
Y278254D01*
X328821Y276876D01*
X329876Y275821D01*
X331254Y275250D01*
X332746D01*
X334124Y275821D01*
X335179Y276876D01*
X335750Y278254D01*
Y279015D01*
X336858Y280123D01*
X338128Y279597D01*
Y277375D01*
X338413Y275941D01*
X339226Y274725D01*
X340441Y273913D01*
X341875Y273628D01*
X348000D01*
Y283000D01*
Y292372D01*
X341875D01*
X340441Y292087D01*
X339348Y291357D01*
X338775Y291498D01*
X338078Y291844D01*
Y309822D01*
X339348Y310348D01*
X339876Y309821D01*
X341254Y309250D01*
X342746D01*
X344124Y309821D01*
X345179Y310876D01*
X345750Y312254D01*
Y313506D01*
X349950Y317706D01*
X497000D01*
X497878Y317880D01*
X498622Y318378D01*
X501622Y321377D01*
X502119Y322122D01*
X502294Y323000D01*
Y358719D01*
X503785Y359715D01*
X504945Y361452D01*
X505352Y363500D01*
Y370500D01*
X504945Y372548D01*
X503785Y374285D01*
X502048Y375446D01*
X500000Y375853D01*
D02*
G37*
G36*
X210500Y326347D02*
X209100D01*
X208164Y326161D01*
X207370Y325630D01*
X206839Y324836D01*
X206653Y323900D01*
Y322000D01*
X210500D01*
Y326347D01*
D02*
G37*
G36*
X215900D02*
X214500D01*
Y320000D01*
Y313653D01*
X215900D01*
X216836Y313839D01*
X217630Y314370D01*
X218161Y315164D01*
X218228Y315500D01*
X222333D01*
X222357Y315378D01*
X222766Y314766D01*
X223378Y314357D01*
X224100Y314214D01*
X230900D01*
X231622Y314357D01*
X232234Y314766D01*
X232643Y315378D01*
X232786Y316100D01*
Y316176D01*
X237000D01*
X237369Y316250D01*
X237746D01*
X238094Y316394D01*
X238463Y316468D01*
X238776Y316677D01*
X239124Y316821D01*
X239391Y317087D01*
X239704Y317296D01*
X239913Y317610D01*
X240179Y317876D01*
X240323Y318224D01*
X240532Y318537D01*
X240606Y318906D01*
X240750Y319254D01*
Y319631D01*
X240823Y320000D01*
X240750Y320369D01*
Y320746D01*
X240606Y321094D01*
X240532Y321463D01*
X240323Y321776D01*
X240179Y322124D01*
X239913Y322390D01*
X239704Y322704D01*
X239391Y322913D01*
X239124Y323179D01*
X238776Y323323D01*
X238463Y323532D01*
X238094Y323606D01*
X237746Y323750D01*
X237369D01*
X237000Y323824D01*
X232786D01*
Y323900D01*
X232643Y324622D01*
X232234Y325234D01*
X231622Y325643D01*
X230900Y325786D01*
X224100D01*
X223378Y325643D01*
X222766Y325234D01*
X222357Y324622D01*
X222333Y324500D01*
X218228D01*
X218161Y324836D01*
X217630Y325630D01*
X216836Y326161D01*
X215900Y326347D01*
D02*
G37*
G36*
X210500Y318000D02*
X206653D01*
Y316100D01*
X206839Y315164D01*
X207370Y314370D01*
X208164Y313839D01*
X209100Y313653D01*
X210500D01*
Y318000D01*
D02*
G37*
G36*
X404253Y314606D02*
X399500D01*
Y311250D01*
X404253D01*
Y314606D01*
D02*
G37*
G36*
X395500D02*
X390747D01*
Y311250D01*
X395500D01*
Y314606D01*
D02*
G37*
G36*
X292000Y317604D02*
Y309000D01*
X297867D01*
Y310000D01*
X297599Y312036D01*
X296813Y313934D01*
X295563Y315563D01*
X293934Y316813D01*
X292036Y317599D01*
X292000Y317604D01*
D02*
G37*
G36*
X288000Y317604D02*
X287964Y317599D01*
X286066Y316813D01*
X284437Y315563D01*
X283187Y313934D01*
X282401Y312036D01*
X282133Y310000D01*
Y309000D01*
X288000D01*
Y317604D01*
D02*
G37*
G36*
X448703Y314056D02*
X436297D01*
Y304444D01*
X448703D01*
Y314056D01*
D02*
G37*
G36*
X404253Y307250D02*
X399500D01*
Y303894D01*
X404253D01*
Y307250D01*
D02*
G37*
G36*
X395500D02*
X390747D01*
Y303894D01*
X395500D01*
Y307250D01*
D02*
G37*
G36*
X317270Y317270D02*
X302730D01*
Y296730D01*
X317270D01*
Y317270D01*
D02*
G37*
G36*
X297867Y305000D02*
X292000D01*
Y296396D01*
X292036Y296401D01*
X293934Y297187D01*
X295563Y298437D01*
X296813Y300066D01*
X297599Y301964D01*
X297867Y304000D01*
Y305000D01*
D02*
G37*
G36*
X288000D02*
X282133D01*
Y304000D01*
X282401Y301964D01*
X283187Y300066D01*
X284437Y298437D01*
X286066Y297187D01*
X287964Y296401D01*
X288000Y296396D01*
Y305000D01*
D02*
G37*
G36*
X358125Y292372D02*
X352000D01*
Y285000D01*
X361872D01*
Y288625D01*
X361587Y290059D01*
X360774Y291275D01*
X359559Y292087D01*
X358125Y292372D01*
D02*
G37*
G36*
X323400Y284847D02*
X322000D01*
Y280500D01*
X325847D01*
Y282400D01*
X325661Y283336D01*
X325130Y284130D01*
X324336Y284661D01*
X323400Y284847D01*
D02*
G37*
G36*
X318000D02*
X316600D01*
X315664Y284661D01*
X314870Y284130D01*
X314339Y283336D01*
X314153Y282400D01*
Y280500D01*
X318000D01*
Y284847D01*
D02*
G37*
G36*
X361872Y281000D02*
X352000D01*
Y273628D01*
X358125D01*
X359559Y273913D01*
X360774Y274725D01*
X361587Y275941D01*
X361872Y277375D01*
Y281000D01*
D02*
G37*
G36*
X325847Y276500D02*
X322000D01*
Y272153D01*
X323400D01*
X324336Y272339D01*
X325130Y272870D01*
X325661Y273664D01*
X325847Y274600D01*
Y276500D01*
D02*
G37*
G36*
X318000D02*
X314153D01*
Y274600D01*
X314339Y273664D01*
X314870Y272870D01*
X315664Y272339D01*
X316600Y272153D01*
X318000D01*
Y276500D01*
D02*
G37*
G36*
X512746Y385750D02*
X511254D01*
X509876Y385179D01*
X508821Y384124D01*
X508250Y382746D01*
Y381254D01*
X508821Y379876D01*
X509801Y378896D01*
Y374877D01*
X508915Y374285D01*
X507754Y372548D01*
X507347Y370500D01*
Y363500D01*
X507754Y361452D01*
X508876Y359773D01*
Y277283D01*
X507416Y275823D01*
X478000D01*
X477631Y275750D01*
X477254D01*
X476906Y275606D01*
X476537Y275532D01*
X476224Y275323D01*
X475876Y275179D01*
X475610Y274913D01*
X475296Y274704D01*
X475087Y274390D01*
X474821Y274124D01*
X474677Y273776D01*
X474468Y273463D01*
X474394Y273094D01*
X474250Y272746D01*
Y272369D01*
X474176Y272000D01*
X474250Y271631D01*
Y271254D01*
X474394Y270906D01*
X474468Y270537D01*
X474677Y270224D01*
X474821Y269876D01*
X475087Y269610D01*
X475296Y269296D01*
X475610Y269087D01*
X475876Y268821D01*
X476224Y268677D01*
X476537Y268468D01*
X476906Y268394D01*
X477254Y268250D01*
X477631D01*
X478000Y268176D01*
X509000D01*
X510463Y268468D01*
X511704Y269296D01*
X515403Y272996D01*
X516232Y274236D01*
X516523Y275700D01*
Y359773D01*
X517645Y361452D01*
X518052Y363500D01*
Y370500D01*
X517645Y372548D01*
X516485Y374285D01*
X514899Y375345D01*
Y379595D01*
X515179Y379876D01*
X515750Y381254D01*
Y382746D01*
X515179Y384124D01*
X514124Y385179D01*
X512746Y385750D01*
D02*
G37*
G36*
X381746Y314750D02*
X380254D01*
X378876Y314179D01*
X377821Y313124D01*
X377250Y311746D01*
Y310855D01*
X373198Y306802D01*
X372645Y305975D01*
X372451Y305000D01*
Y281126D01*
X372043Y280957D01*
X361440Y270353D01*
X315000D01*
X314043Y269957D01*
X313043Y268957D01*
X312647Y268000D01*
Y267872D01*
X305500D01*
X304884Y267750D01*
X303757D01*
X301460Y266798D01*
X299701Y265040D01*
X298750Y262743D01*
Y260257D01*
X299701Y257960D01*
X301460Y256201D01*
X303757Y255250D01*
X304884D01*
X305500Y255128D01*
X312647D01*
Y252000D01*
X313043Y251043D01*
X314043Y250043D01*
X315000Y249647D01*
X360236D01*
X360252Y249623D01*
X359573Y248353D01*
X339000Y248353D01*
X338043Y247957D01*
X337043Y246957D01*
X336647Y246000D01*
Y243372D01*
X295497D01*
X293372Y245497D01*
Y284000D01*
X292887Y286439D01*
X291506Y288506D01*
X275506Y304506D01*
X273439Y305887D01*
X271000Y306373D01*
X240000D01*
X239384Y306250D01*
X238757D01*
X238177Y306010D01*
X237561Y305887D01*
X237040Y305539D01*
X236460Y305299D01*
X236016Y304855D01*
X235494Y304506D01*
X235145Y303984D01*
X234701Y303540D01*
X234461Y302961D01*
X234113Y302439D01*
X233990Y301823D01*
X233750Y301243D01*
Y300616D01*
X233627Y300000D01*
X233750Y299384D01*
Y298757D01*
X233990Y298177D01*
X234113Y297561D01*
X234461Y297040D01*
X234701Y296460D01*
X235145Y296016D01*
X235494Y295494D01*
X236016Y295145D01*
X236460Y294701D01*
X237040Y294461D01*
X237561Y294113D01*
X238177Y293990D01*
X238757Y293750D01*
X239384D01*
X240000Y293628D01*
X268360D01*
X280628Y281360D01*
Y242858D01*
X281113Y240419D01*
X282494Y238352D01*
X288352Y232494D01*
X290419Y231113D01*
X292858Y230627D01*
X336647D01*
Y205000D01*
X337043Y204043D01*
X357268Y183819D01*
X356741Y182549D01*
X298056D01*
X270802Y209802D01*
X269975Y210355D01*
X269000Y210549D01*
X163706D01*
X145776Y228479D01*
X145973Y228820D01*
X146490Y230751D01*
Y232749D01*
X145973Y234680D01*
X144973Y236410D01*
X143560Y237824D01*
X141830Y238823D01*
X139899Y239340D01*
X137901D01*
X135970Y238823D01*
X134240Y237824D01*
X132826Y236410D01*
X131827Y234680D01*
X131310Y232749D01*
Y232041D01*
X130040Y231515D01*
X121090Y240465D01*
Y252040D01*
X105910D01*
Y236860D01*
X117485D01*
X139135Y215210D01*
X138609Y213940D01*
X137901D01*
X135970Y213423D01*
X134240Y212423D01*
X132826Y211010D01*
X131827Y209280D01*
X131310Y207349D01*
Y205351D01*
X131827Y203420D01*
X132826Y201690D01*
X134240Y200277D01*
X135970Y199277D01*
X137901Y198760D01*
X139899D01*
X141830Y199277D01*
X143560Y200277D01*
X144973Y201690D01*
X145973Y203420D01*
X146490Y205351D01*
Y206059D01*
X147760Y206585D01*
X156148Y198198D01*
X156975Y197645D01*
X157950Y197451D01*
X266944D01*
X293198Y171198D01*
X294025Y170645D01*
X295000Y170451D01*
X403246D01*
X403876Y169821D01*
X405254Y169250D01*
X406746D01*
X408124Y169821D01*
X409179Y170876D01*
X409750Y172254D01*
Y173746D01*
X409179Y175124D01*
X408633Y175670D01*
X408266Y176500D01*
X408633Y177330D01*
X409179Y177876D01*
X409750Y179254D01*
Y180746D01*
X409179Y182124D01*
X408966Y182337D01*
X409492Y183607D01*
X415352D01*
X420607Y178352D01*
Y115375D01*
X373844D01*
Y125782D01*
X374130Y125838D01*
X374748Y126252D01*
X375162Y126870D01*
X375307Y127600D01*
Y135400D01*
X375162Y136130D01*
X374748Y136748D01*
X374130Y137162D01*
X373400Y137307D01*
X372983D01*
X372000Y138000D01*
X372000Y138577D01*
X372000Y142000D01*
X372974Y142714D01*
X373400D01*
X374122Y142857D01*
X374734Y143266D01*
X375143Y143878D01*
X375286Y144600D01*
Y152400D01*
X375143Y153122D01*
X374734Y153734D01*
X374122Y154143D01*
X373400Y154286D01*
X366600D01*
X365878Y154143D01*
X365266Y153734D01*
X364857Y153122D01*
X364714Y152400D01*
Y152323D01*
X355286D01*
Y152400D01*
X355143Y153122D01*
X354734Y153734D01*
X354122Y154143D01*
X353824Y154202D01*
Y157714D01*
X355400D01*
X356122Y157857D01*
X356734Y158266D01*
X357143Y158878D01*
X358000Y159646D01*
X362000D01*
X362339Y158664D01*
X362870Y157870D01*
X363664Y157339D01*
X364600Y157153D01*
X366500D01*
Y163000D01*
Y168847D01*
X364600D01*
X363664Y168661D01*
X362870Y168130D01*
X362339Y167336D01*
X362000Y166352D01*
X358000D01*
X357143Y167122D01*
X356734Y167734D01*
X356122Y168143D01*
X355400Y168286D01*
X347600D01*
X346878Y168143D01*
X346266Y167734D01*
X345857Y167122D01*
X345714Y166400D01*
Y162874D01*
X334492D01*
X333833Y163005D01*
X320167D01*
X319419Y162857D01*
X318785Y162433D01*
X318361Y161799D01*
X318213Y161051D01*
Y157051D01*
X318361Y156303D01*
X318785Y155669D01*
X319419Y155245D01*
X320167Y155096D01*
X333833D01*
X334492Y155227D01*
X345317D01*
X345601Y153957D01*
X345266Y153734D01*
X344857Y153122D01*
X344714Y152400D01*
Y144600D01*
X344857Y143878D01*
X345266Y143266D01*
X345878Y142857D01*
X346646Y142000D01*
Y138000D01*
X345870Y137162D01*
X345252Y136748D01*
X344838Y136130D01*
X344693Y135400D01*
Y127600D01*
X344838Y126870D01*
X345252Y126252D01*
X345870Y125838D01*
X346600Y125693D01*
X353400D01*
X354130Y125838D01*
X354748Y126252D01*
X355162Y126870D01*
X355307Y127600D01*
Y127656D01*
X364693D01*
Y127600D01*
X364838Y126870D01*
X365252Y126252D01*
X365870Y125838D01*
X366156Y125782D01*
Y115375D01*
X327000D01*
X327000Y115375D01*
X326028Y114972D01*
X326028Y114972D01*
X325028Y113972D01*
X324625Y113000D01*
X324625Y113000D01*
Y37000D01*
X324625Y37000D01*
X325028Y36028D01*
X325028Y36028D01*
X326028Y35028D01*
X327000Y34625D01*
X327000Y34625D01*
X377996D01*
X378249Y33355D01*
X377864Y33196D01*
X376804Y32136D01*
X376230Y30750D01*
Y29250D01*
X376804Y27864D01*
X377864Y26804D01*
X379250Y26230D01*
X380750D01*
X382136Y26804D01*
X383196Y27864D01*
X383770Y29250D01*
Y30750D01*
X383196Y32136D01*
X382136Y33196D01*
X381751Y33355D01*
X382004Y34625D01*
X406000D01*
X406000Y34625D01*
X406972Y35028D01*
X406972Y35028D01*
X441972Y70028D01*
X442375Y71000D01*
X442375Y71000D01*
Y112000D01*
X441972Y112972D01*
X441972Y112972D01*
X439972Y114972D01*
X439000Y115375D01*
X439000Y115375D01*
X433393D01*
Y181000D01*
X432906Y183447D01*
X431520Y185520D01*
X422520Y194520D01*
X420447Y195906D01*
X418000Y196393D01*
X392446D01*
X390000Y195906D01*
X389143Y195334D01*
X384572D01*
Y184666D01*
X389143D01*
X390000Y184094D01*
X391381Y183819D01*
X391256Y182549D01*
X381259D01*
X380732Y183819D01*
X380957Y184043D01*
X381353Y185000D01*
Y207102D01*
X382251Y208000D01*
X385000Y208000D01*
X385153Y206793D01*
Y206600D01*
X385339Y205664D01*
X385870Y204870D01*
X386664Y204339D01*
X387600Y204153D01*
X389500D01*
Y210000D01*
Y215847D01*
X387600D01*
X386664Y215661D01*
X385870Y215130D01*
X385339Y214336D01*
X385153Y213400D01*
Y213207D01*
X385000Y212000D01*
X383883Y212000D01*
X381353D01*
Y230000D01*
X380957Y230957D01*
X374440Y237474D01*
X374926Y238647D01*
X422000Y238647D01*
X422957Y239043D01*
X423957Y240043D01*
X424353Y241000D01*
Y279000D01*
X423957Y279957D01*
X422957Y280957D01*
X422000Y281353D01*
X377549D01*
Y303944D01*
X380855Y307250D01*
X381746D01*
X383124Y307821D01*
X384179Y308876D01*
X384750Y310254D01*
Y311746D01*
X384179Y313124D01*
X383124Y314179D01*
X381746Y314750D01*
D02*
G37*
G36*
X463100Y252341D02*
Y246450D01*
X468991D01*
X468685Y247592D01*
X467614Y249448D01*
X466098Y250964D01*
X464242Y252035D01*
X463100Y252341D01*
D02*
G37*
G36*
X459100Y252341D02*
X457958Y252035D01*
X456102Y250964D01*
X454586Y249448D01*
X453515Y247592D01*
X453209Y246450D01*
X459100D01*
Y252341D01*
D02*
G37*
G36*
X551699Y274400D02*
X548301D01*
X544968Y273737D01*
X541829Y272437D01*
X539004Y270549D01*
X536601Y268146D01*
X534713Y265321D01*
X533413Y262182D01*
X532750Y258849D01*
Y255451D01*
X533413Y252118D01*
X534713Y248979D01*
X536601Y246154D01*
X539004Y243751D01*
X541829Y241863D01*
X544968Y240563D01*
X548301Y239900D01*
X551699D01*
X555032Y240563D01*
X558171Y241863D01*
X560996Y243751D01*
X563399Y246154D01*
X565287Y248979D01*
X566587Y252118D01*
X567250Y255451D01*
Y258849D01*
X566587Y262182D01*
X565287Y265321D01*
X563399Y268146D01*
X560996Y270549D01*
X558171Y272437D01*
X555032Y273737D01*
X551699Y274400D01*
D02*
G37*
G36*
X51699D02*
X48301D01*
X44968Y273737D01*
X41829Y272437D01*
X39004Y270549D01*
X36601Y268146D01*
X34713Y265321D01*
X33413Y262182D01*
X32750Y258849D01*
Y255451D01*
X33413Y252118D01*
X34713Y248979D01*
X36601Y246154D01*
X39004Y243751D01*
X41829Y241863D01*
X44968Y240563D01*
X48301Y239900D01*
X51699D01*
X55032Y240563D01*
X58171Y241863D01*
X60996Y243751D01*
X63399Y246154D01*
X65287Y248979D01*
X66587Y252118D01*
X67250Y255451D01*
Y258849D01*
X66587Y262182D01*
X65287Y265321D01*
X63399Y268146D01*
X60996Y270549D01*
X58171Y272437D01*
X55032Y273737D01*
X51699Y274400D01*
D02*
G37*
G36*
X459100Y242450D02*
X453209D01*
X453515Y241308D01*
X454586Y239452D01*
X456102Y237936D01*
X457958Y236865D01*
X459100Y236559D01*
Y242450D01*
D02*
G37*
G36*
X468991D02*
X463100D01*
Y236559D01*
X464242Y236865D01*
X466098Y237936D01*
X467614Y239452D01*
X468685Y241308D01*
X468991Y242450D01*
D02*
G37*
G36*
X44243Y239250D02*
X41757D01*
X39460Y238298D01*
X37985Y236824D01*
X11500D01*
X11131Y236750D01*
X10754D01*
X10406Y236606D01*
X10037Y236532D01*
X9724Y236323D01*
X9376Y236179D01*
X9110Y235913D01*
X8796Y235704D01*
X8587Y235390D01*
X8321Y235124D01*
X8177Y234776D01*
X7968Y234463D01*
X7894Y234094D01*
X7750Y233746D01*
Y233369D01*
X7677Y233000D01*
Y208127D01*
X7250Y207097D01*
Y205605D01*
X7677Y204575D01*
Y167000D01*
X7750Y166631D01*
Y166254D01*
X7894Y165906D01*
X7968Y165537D01*
X8177Y165224D01*
X8321Y164876D01*
X8587Y164610D01*
X8796Y164296D01*
X9110Y164087D01*
X9376Y163821D01*
X9724Y163677D01*
X10037Y163468D01*
X10406Y163394D01*
X10754Y163250D01*
X11131D01*
X11500Y163176D01*
X11869Y163250D01*
X12246D01*
X12594Y163394D01*
X12963Y163468D01*
X13276Y163677D01*
X13624Y163821D01*
X13890Y164087D01*
X14204Y164296D01*
X14413Y164610D01*
X14679Y164876D01*
X14823Y165224D01*
X15032Y165537D01*
X15106Y165906D01*
X15250Y166254D01*
Y166631D01*
X15323Y167000D01*
Y229177D01*
X37985D01*
X39460Y227701D01*
X41757Y226750D01*
X44243D01*
X46540Y227701D01*
X48299Y229460D01*
X49250Y231757D01*
Y234243D01*
X48299Y236540D01*
X46540Y238298D01*
X44243Y239250D01*
D02*
G37*
G36*
X487499Y239340D02*
X485501D01*
X483570Y238823D01*
X481840Y237824D01*
X480426Y236410D01*
X479427Y234680D01*
X478910Y232749D01*
Y230751D01*
X479427Y228820D01*
X480426Y227090D01*
X481840Y225676D01*
X483570Y224677D01*
X485501Y224160D01*
X487499D01*
X489430Y224677D01*
X491160Y225676D01*
X492574Y227090D01*
X493573Y228820D01*
X494090Y230751D01*
Y232749D01*
X493573Y234680D01*
X492574Y236410D01*
X491160Y237824D01*
X489430Y238823D01*
X487499Y239340D01*
D02*
G37*
G36*
X227000Y260353D02*
X158000D01*
X157043Y259957D01*
X155043Y257957D01*
X154647Y257000D01*
Y227000D01*
X155043Y226043D01*
X157043Y224043D01*
X158000Y223647D01*
X227000D01*
X227957Y224043D01*
X229957Y226043D01*
X230353Y227000D01*
Y257000D01*
X229957Y257957D01*
X227957Y259957D01*
X227000Y260353D01*
D02*
G37*
G36*
X323000Y223826D02*
Y222000D01*
X324826D01*
X324645Y222436D01*
X323436Y223645D01*
X323000Y223826D01*
D02*
G37*
G36*
X309000Y223826D02*
Y222000D01*
X310826D01*
X310645Y222436D01*
X309436Y223645D01*
X309000Y223826D01*
D02*
G37*
G36*
X305000Y223826D02*
X304564Y223645D01*
X303355Y222436D01*
X303174Y222000D01*
X305000D01*
Y223826D01*
D02*
G37*
G36*
X319000Y223826D02*
X318564Y223645D01*
X317355Y222436D01*
X317174Y222000D01*
X319000D01*
Y223826D01*
D02*
G37*
G36*
X463100Y226941D02*
Y221050D01*
X468991D01*
X468685Y222192D01*
X467614Y224048D01*
X466098Y225564D01*
X464242Y226635D01*
X463100Y226941D01*
D02*
G37*
G36*
X459100Y226941D02*
X457958Y226635D01*
X456102Y225564D01*
X454586Y224048D01*
X453515Y222192D01*
X453209Y221050D01*
X459100D01*
Y226941D01*
D02*
G37*
G36*
X305000Y218000D02*
X303174D01*
X303355Y217564D01*
X304564Y216355D01*
X305000Y216174D01*
Y218000D01*
D02*
G37*
G36*
X324826D02*
X323000D01*
Y216174D01*
X323436Y216355D01*
X324645Y217564D01*
X324826Y218000D01*
D02*
G37*
G36*
X319000D02*
X317174D01*
X317355Y217564D01*
X318564Y216355D01*
X319000Y216174D01*
Y218000D01*
D02*
G37*
G36*
X310826D02*
X309000D01*
Y216174D01*
X309436Y216355D01*
X310645Y217564D01*
X310826Y218000D01*
D02*
G37*
G36*
X302000Y216826D02*
Y215000D01*
X303826D01*
X303645Y215436D01*
X302436Y216645D01*
X302000Y216826D01*
D02*
G37*
G36*
X316000Y216826D02*
Y215000D01*
X317826D01*
X317645Y215436D01*
X316436Y216645D01*
X316000Y216826D01*
D02*
G37*
G36*
X330000Y216826D02*
Y215000D01*
X331826D01*
X331645Y215436D01*
X330436Y216645D01*
X330000Y216826D01*
D02*
G37*
G36*
X326000Y216826D02*
X325564Y216645D01*
X324355Y215436D01*
X324174Y215000D01*
X326000D01*
Y216826D01*
D02*
G37*
G36*
X312000Y216826D02*
X311564Y216645D01*
X310355Y215436D01*
X310174Y215000D01*
X312000D01*
Y216826D01*
D02*
G37*
G36*
X298000Y216826D02*
X297564Y216645D01*
X296355Y215436D01*
X296174Y215000D01*
X298000D01*
Y216826D01*
D02*
G37*
G36*
X395400Y215847D02*
X393500D01*
Y212000D01*
X397847D01*
Y213400D01*
X397661Y214336D01*
X397130Y215130D01*
X396336Y215661D01*
X395400Y215847D01*
D02*
G37*
G36*
X114499Y226640D02*
X112501D01*
X110570Y226123D01*
X108840Y225124D01*
X107427Y223710D01*
X106427Y221980D01*
X105910Y220049D01*
Y218051D01*
X106427Y216120D01*
X107427Y214390D01*
X108840Y212976D01*
X110570Y211977D01*
X112501Y211460D01*
X114499D01*
X116430Y211977D01*
X118160Y212976D01*
X119573Y214390D01*
X120573Y216120D01*
X121090Y218051D01*
Y220049D01*
X120573Y221980D01*
X119573Y223710D01*
X118160Y225124D01*
X116430Y226123D01*
X114499Y226640D01*
D02*
G37*
G36*
X459100Y217050D02*
X453209D01*
X453515Y215908D01*
X454586Y214052D01*
X456102Y212536D01*
X457958Y211465D01*
X459100Y211159D01*
Y217050D01*
D02*
G37*
G36*
X468991D02*
X463100D01*
Y211159D01*
X464242Y211465D01*
X466098Y212536D01*
X467614Y214052D01*
X468685Y215908D01*
X468991Y217050D01*
D02*
G37*
G36*
X303826Y211000D02*
X302000D01*
Y209174D01*
X302436Y209355D01*
X303645Y210564D01*
X303826Y211000D01*
D02*
G37*
G36*
X326000D02*
X324174D01*
X324355Y210564D01*
X325564Y209355D01*
X326000Y209174D01*
Y211000D01*
D02*
G37*
G36*
X317826D02*
X316000D01*
Y209174D01*
X316436Y209355D01*
X317645Y210564D01*
X317826Y211000D01*
D02*
G37*
G36*
X312000D02*
X310174D01*
X310355Y210564D01*
X311564Y209355D01*
X312000Y209174D01*
Y211000D01*
D02*
G37*
G36*
X331826D02*
X330000D01*
Y209174D01*
X330436Y209355D01*
X331645Y210564D01*
X331826Y211000D01*
D02*
G37*
G36*
X298000D02*
X296174D01*
X296355Y210564D01*
X297564Y209355D01*
X298000Y209174D01*
Y211000D01*
D02*
G37*
G36*
X323000Y209826D02*
Y208000D01*
X324826D01*
X324645Y208436D01*
X323436Y209645D01*
X323000Y209826D01*
D02*
G37*
G36*
X309000Y209826D02*
Y208000D01*
X310826D01*
X310645Y208436D01*
X309436Y209645D01*
X309000Y209826D01*
D02*
G37*
G36*
X305000Y209826D02*
X304564Y209645D01*
X303355Y208436D01*
X303174Y208000D01*
X305000D01*
Y209826D01*
D02*
G37*
G36*
X319000Y209826D02*
X318564Y209645D01*
X317355Y208436D01*
X317174Y208000D01*
X319000D01*
Y209826D01*
D02*
G37*
G36*
X397847Y208000D02*
X393500D01*
Y204153D01*
X395400D01*
X396336Y204339D01*
X397130Y204870D01*
X397661Y205664D01*
X397847Y206600D01*
Y208000D01*
D02*
G37*
G36*
X305000Y204000D02*
X303174D01*
X303355Y203564D01*
X304564Y202355D01*
X305000Y202174D01*
Y204000D01*
D02*
G37*
G36*
X324826D02*
X323000D01*
Y202174D01*
X323436Y202355D01*
X324645Y203564D01*
X324826Y204000D01*
D02*
G37*
G36*
X319000D02*
X317174D01*
X317355Y203564D01*
X318564Y202355D01*
X319000Y202174D01*
Y204000D01*
D02*
G37*
G36*
X310826D02*
X309000D01*
Y202174D01*
X309436Y202355D01*
X310645Y203564D01*
X310826Y204000D01*
D02*
G37*
G36*
X302000Y202826D02*
Y201000D01*
X303826D01*
X303645Y201436D01*
X302436Y202645D01*
X302000Y202826D01*
D02*
G37*
G36*
X316000Y202826D02*
Y201000D01*
X317826D01*
X317645Y201436D01*
X316436Y202645D01*
X316000Y202826D01*
D02*
G37*
G36*
X330000Y202826D02*
Y201000D01*
X331826D01*
X331645Y201436D01*
X330436Y202645D01*
X330000Y202826D01*
D02*
G37*
G36*
X326000Y202826D02*
X325564Y202645D01*
X324355Y201436D01*
X324174Y201000D01*
X326000D01*
Y202826D01*
D02*
G37*
G36*
X312000Y202826D02*
X311564Y202645D01*
X310355Y201436D01*
X310174Y201000D01*
X312000D01*
Y202826D01*
D02*
G37*
G36*
X298000Y202826D02*
X297564Y202645D01*
X296355Y201436D01*
X296174Y201000D01*
X298000D01*
Y202826D01*
D02*
G37*
G36*
X487499Y213940D02*
X485501D01*
X483570Y213423D01*
X481840Y212423D01*
X480426Y211010D01*
X479427Y209280D01*
X478910Y207349D01*
Y205351D01*
X479427Y203420D01*
X480426Y201690D01*
X481840Y200277D01*
X483570Y199277D01*
X485501Y198760D01*
X487499D01*
X489430Y199277D01*
X491160Y200277D01*
X492574Y201690D01*
X493573Y203420D01*
X494090Y205351D01*
Y207349D01*
X493573Y209280D01*
X492574Y211010D01*
X491160Y212423D01*
X489430Y213423D01*
X487499Y213940D01*
D02*
G37*
G36*
X303826Y197000D02*
X302000D01*
Y195174D01*
X302436Y195355D01*
X303645Y196564D01*
X303826Y197000D01*
D02*
G37*
G36*
X326000D02*
X324174D01*
X324355Y196564D01*
X325564Y195355D01*
X326000Y195174D01*
Y197000D01*
D02*
G37*
G36*
X317826D02*
X316000D01*
Y195174D01*
X316436Y195355D01*
X317645Y196564D01*
X317826Y197000D01*
D02*
G37*
G36*
X312000D02*
X310174D01*
X310355Y196564D01*
X311564Y195355D01*
X312000Y195174D01*
Y197000D01*
D02*
G37*
G36*
X331826D02*
X330000D01*
Y195174D01*
X330436Y195355D01*
X331645Y196564D01*
X331826Y197000D01*
D02*
G37*
G36*
X298000D02*
X296174D01*
X296355Y196564D01*
X297564Y195355D01*
X298000Y195174D01*
Y197000D01*
D02*
G37*
G36*
X323000Y195826D02*
Y194000D01*
X324826D01*
X324645Y194436D01*
X323436Y195645D01*
X323000Y195826D01*
D02*
G37*
G36*
X309000Y195826D02*
Y194000D01*
X310826D01*
X310645Y194436D01*
X309436Y195645D01*
X309000Y195826D01*
D02*
G37*
G36*
X305000Y195826D02*
X304564Y195645D01*
X303355Y194436D01*
X303174Y194000D01*
X305000D01*
Y195826D01*
D02*
G37*
G36*
X319000Y195826D02*
X318564Y195645D01*
X317355Y194436D01*
X317174Y194000D01*
X319000D01*
Y195826D01*
D02*
G37*
G36*
X305000Y190000D02*
X303174D01*
X303355Y189564D01*
X304564Y188355D01*
X305000Y188174D01*
Y190000D01*
D02*
G37*
G36*
X324826D02*
X323000D01*
Y188174D01*
X323436Y188355D01*
X324645Y189564D01*
X324826Y190000D01*
D02*
G37*
G36*
X319000D02*
X317174D01*
X317355Y189564D01*
X318564Y188355D01*
X319000Y188174D01*
Y190000D01*
D02*
G37*
G36*
X310826D02*
X309000D01*
Y188174D01*
X309436Y188355D01*
X310645Y189564D01*
X310826Y190000D01*
D02*
G37*
G36*
X462099Y201240D02*
X460101D01*
X458170Y200723D01*
X456440Y199723D01*
X455027Y198310D01*
X454027Y196580D01*
X453510Y194649D01*
Y192651D01*
X454027Y190720D01*
X455027Y188990D01*
X456440Y187577D01*
X458170Y186577D01*
X460101Y186060D01*
X462099D01*
X464030Y186577D01*
X465760Y187577D01*
X467174Y188990D01*
X468173Y190720D01*
X468690Y192651D01*
Y194649D01*
X468173Y196580D01*
X467174Y198310D01*
X465760Y199723D01*
X464030Y200723D01*
X462099Y201240D01*
D02*
G37*
G36*
X114499D02*
X112501D01*
X110570Y200723D01*
X108840Y199723D01*
X107427Y198310D01*
X106427Y196580D01*
X105910Y194649D01*
Y192651D01*
X106427Y190720D01*
X107427Y188990D01*
X108840Y187577D01*
X110570Y186577D01*
X112501Y186060D01*
X114499D01*
X116430Y186577D01*
X118160Y187577D01*
X119573Y188990D01*
X120573Y190720D01*
X121090Y192651D01*
Y194649D01*
X120573Y196580D01*
X119573Y198310D01*
X118160Y199723D01*
X116430Y200723D01*
X114499Y201240D01*
D02*
G37*
G36*
X140900Y188841D02*
Y182950D01*
X146791D01*
X146485Y184092D01*
X145414Y185948D01*
X143898Y187464D01*
X142042Y188535D01*
X140900Y188841D01*
D02*
G37*
G36*
X136900D02*
X135758Y188535D01*
X133902Y187464D01*
X132386Y185948D01*
X131315Y184092D01*
X131009Y182950D01*
X136900D01*
Y188841D01*
D02*
G37*
G36*
X487499Y188540D02*
X485501D01*
X483570Y188023D01*
X481840Y187024D01*
X480426Y185610D01*
X479427Y183880D01*
X478910Y181949D01*
Y179951D01*
X479427Y178020D01*
X480426Y176290D01*
X481840Y174876D01*
X483570Y173877D01*
X485501Y173360D01*
X487499D01*
X489430Y173877D01*
X491160Y174876D01*
X492574Y176290D01*
X493573Y178020D01*
X494090Y179951D01*
Y181949D01*
X493573Y183880D01*
X492574Y185610D01*
X491160Y187024D01*
X489430Y188023D01*
X487499Y188540D01*
D02*
G37*
G36*
X146791Y178950D02*
X138900D01*
X131009D01*
X131315Y177808D01*
X131474Y177532D01*
X131028Y175972D01*
X122360Y167304D01*
X121090Y167830D01*
Y169249D01*
X120573Y171180D01*
X119573Y172910D01*
X118160Y174324D01*
X116430Y175323D01*
X114499Y175840D01*
X112501D01*
X110570Y175323D01*
X108840Y174324D01*
X107427Y172910D01*
X106427Y171180D01*
X105910Y169249D01*
Y167251D01*
X106427Y165320D01*
X107427Y163590D01*
X108840Y162176D01*
X110570Y161177D01*
X112501Y160660D01*
X113920D01*
X114446Y159390D01*
X94028Y138972D01*
X93625Y138000D01*
X93625Y138000D01*
X93625Y112000D01*
X94028Y111028D01*
X94028Y111028D01*
X96028Y109028D01*
X97000Y108625D01*
X97000Y108625D01*
X127000Y108625D01*
X127000Y108625D01*
X127972Y109028D01*
X158569Y139625D01*
X226000D01*
X226000Y139625D01*
X226972Y140028D01*
X226972Y140028D01*
X228531Y141587D01*
X229644Y141822D01*
X230192Y141654D01*
X230664Y141339D01*
X231600Y141153D01*
X233500D01*
Y147000D01*
Y152847D01*
X231600D01*
X230664Y152661D01*
X230645Y152648D01*
X229375Y153327D01*
Y173000D01*
X229375Y173000D01*
X228972Y173972D01*
X228972Y173972D01*
X226972Y175972D01*
X226000Y176375D01*
X226000Y176375D01*
X146928D01*
X146293Y177474D01*
X146485Y177808D01*
X146791Y178950D01*
D02*
G37*
G36*
X372400Y168847D02*
X370500D01*
Y165000D01*
X374847D01*
Y166400D01*
X374661Y167336D01*
X374130Y168130D01*
X373336Y168661D01*
X372400Y168847D01*
D02*
G37*
G36*
X462099Y175840D02*
X460101D01*
X458170Y175323D01*
X456440Y174324D01*
X455027Y172910D01*
X454027Y171180D01*
X453510Y169249D01*
Y167251D01*
X454027Y165320D01*
X455027Y163590D01*
X456440Y162176D01*
X458170Y161177D01*
X460101Y160660D01*
X462099D01*
X464030Y161177D01*
X465760Y162176D01*
X467174Y163590D01*
X468173Y165320D01*
X468690Y167251D01*
Y169249D01*
X468173Y171180D01*
X467174Y172910D01*
X465760Y174324D01*
X464030Y175323D01*
X462099Y175840D01*
D02*
G37*
G36*
X374847Y161000D02*
X370500D01*
Y157153D01*
X372400D01*
X373336Y157339D01*
X374130Y157870D01*
X374661Y158664D01*
X374847Y159600D01*
Y161000D01*
D02*
G37*
G36*
X259400Y179307D02*
X251600D01*
X250870Y179161D01*
X250252Y178748D01*
X249839Y178130D01*
X249693Y177400D01*
Y170600D01*
X249839Y169870D01*
X250252Y169252D01*
X250870Y168839D01*
X251600Y168693D01*
X251624D01*
X252150Y167423D01*
X251363Y166637D01*
X250862Y165886D01*
X250686Y165000D01*
Y158375D01*
X248000D01*
X248000Y158375D01*
X247028Y157972D01*
X247028Y157972D01*
X246028Y156972D01*
X245625Y156000D01*
X245625Y156000D01*
Y149898D01*
X244727Y149000D01*
X242000Y149000D01*
X241847Y150207D01*
Y150400D01*
X241661Y151336D01*
X241130Y152130D01*
X240336Y152661D01*
X239400Y152847D01*
X237500D01*
Y147000D01*
Y141153D01*
X239400D01*
X240336Y141339D01*
X241130Y141870D01*
X241661Y142664D01*
X241847Y143600D01*
Y143793D01*
X242000Y145000D01*
X243117Y145000D01*
X245625D01*
X245625Y136000D01*
X242000D01*
X241847Y137207D01*
Y137400D01*
X241661Y138336D01*
X241130Y139130D01*
X240336Y139661D01*
X239400Y139847D01*
X237500D01*
Y134000D01*
Y128153D01*
X238413D01*
X238939Y126883D01*
X233431Y121375D01*
X162000D01*
X162000Y121375D01*
X161028Y120972D01*
X161028Y120972D01*
X160028Y119972D01*
X159625Y119000D01*
X159625Y119000D01*
Y95355D01*
X158750Y94770D01*
X157250D01*
X155864Y94196D01*
X154983Y93315D01*
X130000D01*
X129114Y93138D01*
X128363Y92637D01*
X116497Y80770D01*
X115250D01*
X113864Y80196D01*
X112804Y79135D01*
X112230Y77750D01*
Y76250D01*
X112804Y74865D01*
X113864Y73804D01*
X115250Y73230D01*
X116750D01*
X118135Y73804D01*
X119196Y74865D01*
X119770Y76250D01*
Y77497D01*
X130959Y88686D01*
X154983D01*
X155864Y87804D01*
X157250Y87230D01*
X158750D01*
X159625Y86645D01*
Y75000D01*
X159625Y75000D01*
X160028Y74028D01*
X160028Y74028D01*
X161028Y73028D01*
X162000Y72625D01*
X162000Y72625D01*
X210000D01*
X210000Y72625D01*
X210972Y73028D01*
X225355Y87411D01*
X226625Y86885D01*
Y37000D01*
X226625Y37000D01*
X227028Y36028D01*
X227028Y36028D01*
X228028Y35028D01*
X229000Y34625D01*
X229000Y34625D01*
X282000D01*
X282000Y34625D01*
X282972Y35028D01*
X282972Y35028D01*
X283972Y36028D01*
X283972Y36028D01*
X284375Y37000D01*
X284375Y37000D01*
Y124000D01*
X283972Y124972D01*
X283972Y124972D01*
X282972Y125972D01*
X282972Y125972D01*
X282000Y126375D01*
X282000Y127625D01*
X282972Y128028D01*
X282972Y128028D01*
X283972Y129028D01*
X284375Y130000D01*
X284375Y130000D01*
Y138000D01*
X284375Y138000D01*
X283972Y138972D01*
X283972Y138972D01*
X282972Y139972D01*
X282000Y140375D01*
X282000Y140375D01*
X260569D01*
X260375Y140569D01*
Y156000D01*
X260375Y156000D01*
X259972Y156972D01*
X259972Y156972D01*
X258972Y157972D01*
X258000Y158375D01*
X258000Y158375D01*
X255315D01*
Y164041D01*
X256637Y165363D01*
X257138Y166114D01*
X257314Y167000D01*
Y168693D01*
X259400D01*
X260130Y168839D01*
X260748Y169252D01*
X261161Y169870D01*
X261998Y170648D01*
X265998D01*
X266857Y169878D01*
X267266Y169266D01*
X267878Y168857D01*
X268600Y168714D01*
X270206D01*
Y163005D01*
X266167D01*
X265419Y162857D01*
X264785Y162433D01*
X264361Y161799D01*
X264212Y161051D01*
Y157051D01*
X264361Y156303D01*
X264785Y155669D01*
X265419Y155245D01*
X266167Y155096D01*
X279833D01*
X280581Y155245D01*
X281215Y155669D01*
X281639Y156303D01*
X281787Y157051D01*
Y161051D01*
X281639Y161799D01*
X281215Y162433D01*
X280581Y162857D01*
X279833Y163005D01*
X274794D01*
Y168714D01*
X276400D01*
X277122Y168857D01*
X277734Y169266D01*
X278143Y169878D01*
X278286Y170600D01*
Y177400D01*
X278143Y178122D01*
X277734Y178734D01*
X277122Y179143D01*
X276400Y179286D01*
X268600D01*
X267878Y179143D01*
X267266Y178734D01*
X266857Y178122D01*
X265998Y177354D01*
X261998D01*
X261161Y178130D01*
X260748Y178748D01*
X260130Y179161D01*
X259400Y179307D01*
D02*
G37*
G36*
X279833Y150866D02*
X275000D01*
Y148351D01*
X282348D01*
Y148351D01*
X282157Y149313D01*
X281612Y150129D01*
X280796Y150675D01*
X279833Y150866D01*
D02*
G37*
G36*
X271000D02*
X266167D01*
X265204Y150675D01*
X264388Y150129D01*
X263843Y149313D01*
X263652Y148351D01*
Y148351D01*
X271000D01*
Y150866D01*
D02*
G37*
G36*
X494090Y163140D02*
X478910D01*
Y147960D01*
X494090D01*
Y163140D01*
D02*
G37*
G36*
X333833Y150305D02*
X320167D01*
X319419Y150157D01*
X318785Y149733D01*
X318361Y149099D01*
X318213Y148351D01*
Y144351D01*
X318361Y143603D01*
X318785Y142969D01*
X319419Y142545D01*
X320167Y142396D01*
X333833D01*
X334581Y142545D01*
X335215Y142969D01*
X335639Y143603D01*
X335788Y144351D01*
Y148351D01*
X335639Y149099D01*
X335215Y149733D01*
X334581Y150157D01*
X333833Y150305D01*
D02*
G37*
G36*
X313800Y157800D02*
X302000D01*
Y142000D01*
X313800D01*
Y157800D01*
D02*
G37*
G36*
X298000D02*
X286200D01*
Y142000D01*
X298000D01*
Y157800D01*
D02*
G37*
G36*
X282348Y144351D02*
X275000D01*
Y141835D01*
X279833D01*
X280796Y142027D01*
X281612Y142572D01*
X282157Y143388D01*
X282348Y144351D01*
Y144351D01*
D02*
G37*
G36*
X271000D02*
X263652D01*
Y144351D01*
X263843Y143388D01*
X264388Y142572D01*
X265204Y142027D01*
X266167Y141835D01*
X271000D01*
Y144351D01*
D02*
G37*
G36*
X233500Y139847D02*
X231600D01*
X230664Y139661D01*
X229870Y139130D01*
X229339Y138336D01*
X229153Y137400D01*
Y136000D01*
X233500D01*
Y139847D01*
D02*
G37*
G36*
X333833Y137605D02*
X320167D01*
X319419Y137457D01*
X318785Y137033D01*
X318361Y136399D01*
X318213Y135651D01*
Y131651D01*
X318361Y130903D01*
X318785Y130269D01*
X319419Y129845D01*
X320167Y129696D01*
X333833D01*
X334581Y129845D01*
X335215Y130269D01*
X335639Y130903D01*
X335788Y131651D01*
Y135651D01*
X335639Y136399D01*
X335215Y137033D01*
X334581Y137457D01*
X333833Y137605D01*
D02*
G37*
G36*
X233500Y132000D02*
X229153D01*
Y130600D01*
X229339Y129664D01*
X229870Y128870D01*
X230664Y128339D01*
X231600Y128153D01*
X233500D01*
Y132000D01*
D02*
G37*
G36*
X551699Y160100D02*
X548301D01*
X544968Y159437D01*
X541829Y158137D01*
X539004Y156249D01*
X536601Y153846D01*
X534713Y151021D01*
X533413Y147882D01*
X532750Y144549D01*
Y141151D01*
X533413Y137818D01*
X534713Y134679D01*
X536601Y131854D01*
X539004Y129451D01*
X541829Y127563D01*
X544968Y126263D01*
X548301Y125600D01*
X551699D01*
X555032Y126263D01*
X558171Y127563D01*
X560996Y129451D01*
X563399Y131854D01*
X565287Y134679D01*
X566587Y137818D01*
X567250Y141151D01*
Y144549D01*
X566587Y147882D01*
X565287Y151021D01*
X563399Y153846D01*
X560996Y156249D01*
X558171Y158137D01*
X555032Y159437D01*
X551699Y160100D01*
D02*
G37*
G36*
X51699D02*
X48301D01*
X44968Y159437D01*
X41829Y158137D01*
X39004Y156249D01*
X36601Y153846D01*
X34713Y151021D01*
X33413Y147882D01*
X32750Y144549D01*
Y141151D01*
X33413Y137818D01*
X34713Y134679D01*
X36601Y131854D01*
X39004Y129451D01*
X41829Y127563D01*
X44968Y126263D01*
X48301Y125600D01*
X51699D01*
X55032Y126263D01*
X58171Y127563D01*
X60996Y129451D01*
X63399Y131854D01*
X65287Y134679D01*
X66587Y137818D01*
X67250Y141151D01*
Y144549D01*
X66587Y147882D01*
X65287Y151021D01*
X63399Y153846D01*
X60996Y156249D01*
X58171Y158137D01*
X55032Y159437D01*
X51699Y160100D01*
D02*
G37*
G36*
X313800Y138000D02*
X302000D01*
Y122200D01*
X313800D01*
Y138000D01*
D02*
G37*
G36*
X298000D02*
X286200D01*
Y122200D01*
X298000D01*
Y138000D01*
D02*
G37*
G36*
X333833Y124905D02*
X320167D01*
X319419Y124757D01*
X318785Y124333D01*
X318361Y123699D01*
X318213Y122951D01*
Y119591D01*
X318201Y119534D01*
Y118265D01*
X318162Y118069D01*
Y89772D01*
X317140Y88750D01*
X316254D01*
X314876Y88179D01*
X313821Y87124D01*
X313250Y85746D01*
Y84254D01*
X313821Y82876D01*
X314876Y81821D01*
X316254Y81250D01*
X317746D01*
X319124Y81821D01*
X320179Y82876D01*
X320750Y84254D01*
Y85150D01*
X322514Y86914D01*
X323066Y87741D01*
X323260Y88716D01*
Y116996D01*
X333833D01*
X334581Y117145D01*
X335215Y117569D01*
X335639Y118203D01*
X335788Y118951D01*
Y122951D01*
X335639Y123699D01*
X335215Y124333D01*
X334581Y124757D01*
X333833Y124905D01*
D02*
G37*
G36*
X562503Y71800D02*
X562000D01*
Y42000D01*
X591800D01*
Y42503D01*
X591017Y47446D01*
X589470Y52207D01*
X587198Y56667D01*
X584256Y60716D01*
X580716Y64256D01*
X576667Y67198D01*
X572207Y69470D01*
X567447Y71017D01*
X562503Y71800D01*
D02*
G37*
G36*
X558000D02*
X557497D01*
X552553Y71017D01*
X547793Y69470D01*
X543333Y67198D01*
X539284Y64256D01*
X535744Y60716D01*
X532802Y56667D01*
X530530Y52207D01*
X528983Y47446D01*
X528200Y42503D01*
Y42000D01*
X558000D01*
Y71800D01*
D02*
G37*
G36*
X42503D02*
X42000D01*
Y42000D01*
X71800D01*
Y42503D01*
X71017Y47446D01*
X69470Y52207D01*
X67198Y56667D01*
X64256Y60716D01*
X60716Y64256D01*
X56667Y67198D01*
X52207Y69470D01*
X47446Y71017D01*
X42503Y71800D01*
D02*
G37*
G36*
X38000D02*
X37497D01*
X32554Y71017D01*
X27793Y69470D01*
X23333Y67198D01*
X19284Y64256D01*
X15744Y60716D01*
X12802Y56667D01*
X10530Y52207D01*
X8983Y47446D01*
X8200Y42503D01*
Y42000D01*
X38000D01*
Y71800D01*
D02*
G37*
G36*
X490957Y77270D02*
X489043D01*
X487194Y76775D01*
X485536Y75817D01*
X484183Y74464D01*
X483225Y72806D01*
X482730Y70957D01*
Y69043D01*
X483225Y67194D01*
X483990Y65870D01*
Y51117D01*
X484477Y48671D01*
X485693Y46850D01*
Y46600D01*
X485839Y45870D01*
X486252Y45252D01*
X486870Y44839D01*
X487600Y44693D01*
X488156D01*
X489053Y44094D01*
X491500Y43607D01*
X493946Y44094D01*
X494844Y44693D01*
X495400D01*
X496130Y44839D01*
X496748Y45252D01*
X497161Y45870D01*
X497999Y46647D01*
X501999D01*
X502857Y45878D01*
X503266Y45266D01*
X503878Y44857D01*
X504600Y44714D01*
X505456D01*
Y35786D01*
X504100D01*
X503378Y35643D01*
X502766Y35234D01*
X502357Y34622D01*
X502333Y34500D01*
X498228D01*
X498161Y34836D01*
X497630Y35630D01*
X496836Y36161D01*
X495900Y36347D01*
X494500D01*
Y30000D01*
Y23653D01*
X495900D01*
X496836Y23839D01*
X497630Y24370D01*
X498161Y25164D01*
X498228Y25500D01*
X502333D01*
X502357Y25378D01*
X502766Y24766D01*
X503378Y24357D01*
X504100Y24214D01*
X510900D01*
X511622Y24357D01*
X512234Y24766D01*
X512643Y25378D01*
X512786Y26100D01*
Y33900D01*
X512643Y34622D01*
X512234Y35234D01*
X511622Y35643D01*
X510900Y35786D01*
X510044D01*
Y44714D01*
X512400D01*
X513122Y44857D01*
X513734Y45266D01*
X514143Y45878D01*
X514286Y46600D01*
Y53400D01*
X514143Y54122D01*
X513734Y54734D01*
X513122Y55143D01*
X512400Y55286D01*
X504600D01*
X503878Y55143D01*
X503266Y54734D01*
X502857Y54122D01*
X501999Y53353D01*
X497999D01*
X497161Y54130D01*
X496776Y54707D01*
Y67197D01*
X497270Y69043D01*
Y70957D01*
X496775Y72806D01*
X495817Y74464D01*
X494464Y75817D01*
X492806Y76775D01*
X490957Y77270D01*
D02*
G37*
G36*
X490500Y36347D02*
X489100D01*
X488164Y36161D01*
X487370Y35630D01*
X486839Y34836D01*
X486653Y33900D01*
Y32000D01*
X490500D01*
Y36347D01*
D02*
G37*
G36*
X179293Y45290D02*
X172000D01*
Y28980D01*
X179293D01*
Y45290D01*
D02*
G37*
G36*
X168000D02*
X160707D01*
Y28980D01*
X168000D01*
Y45290D01*
D02*
G37*
G36*
X439293D02*
X432000D01*
Y28980D01*
X439293D01*
Y45290D01*
D02*
G37*
G36*
X428000D02*
X420707D01*
Y28980D01*
X428000D01*
Y45290D01*
D02*
G37*
G36*
X490500Y28000D02*
X486653D01*
Y26100D01*
X486839Y25164D01*
X487370Y24370D01*
X488164Y23839D01*
X489100Y23653D01*
X490500D01*
Y28000D01*
D02*
G37*
G36*
X119750Y30770D02*
X118250D01*
X116865Y30196D01*
X115804Y29135D01*
X115230Y27750D01*
Y26250D01*
X115804Y24864D01*
X116865Y23804D01*
X118250Y23230D01*
X119750D01*
X121136Y23804D01*
X122196Y24864D01*
X122770Y26250D01*
Y27750D01*
X122196Y29135D01*
X121136Y30196D01*
X119750Y30770D01*
D02*
G37*
G36*
X110750D02*
X109250D01*
X107865Y30196D01*
X106804Y29135D01*
X106230Y27750D01*
Y26250D01*
X106804Y24864D01*
X107865Y23804D01*
X109250Y23230D01*
X110750D01*
X112135Y23804D01*
X113196Y24864D01*
X113770Y26250D01*
Y27750D01*
X113196Y29135D01*
X112135Y30196D01*
X110750Y30770D01*
D02*
G37*
G36*
X101750D02*
X100250D01*
X98864Y30196D01*
X97804Y29135D01*
X97230Y27750D01*
Y26250D01*
X97804Y24864D01*
X98864Y23804D01*
X100250Y23230D01*
X101750D01*
X103135Y23804D01*
X104196Y24864D01*
X104770Y26250D01*
Y27750D01*
X104196Y29135D01*
X103135Y30196D01*
X101750Y30770D01*
D02*
G37*
G36*
X380750Y23770D02*
X379250D01*
X377864Y23196D01*
X376804Y22136D01*
X376230Y20750D01*
Y19250D01*
X376804Y17865D01*
X377864Y16804D01*
X379250Y16230D01*
X380750D01*
X382136Y16804D01*
X383196Y17865D01*
X383770Y19250D01*
Y20750D01*
X383196Y22136D01*
X382136Y23196D01*
X380750Y23770D01*
D02*
G37*
G36*
X439293Y24980D02*
X432000D01*
Y8670D01*
X439293D01*
Y24980D01*
D02*
G37*
G36*
X428000D02*
X420707D01*
Y8670D01*
X428000D01*
Y24980D01*
D02*
G37*
G36*
X179293Y24980D02*
X172000D01*
Y8670D01*
X179293D01*
Y24980D01*
D02*
G37*
G36*
X168000D02*
X160707D01*
Y8670D01*
X168000D01*
Y24980D01*
D02*
G37*
G36*
X591800Y38000D02*
X562000D01*
Y8200D01*
X562503D01*
X567447Y8983D01*
X572207Y10530D01*
X576667Y12802D01*
X580716Y15744D01*
X584256Y19284D01*
X587198Y23333D01*
X589470Y27793D01*
X591017Y32554D01*
X591800Y37497D01*
Y38000D01*
D02*
G37*
G36*
X558000D02*
X528200D01*
Y37497D01*
X528983Y32554D01*
X530530Y27793D01*
X532802Y23333D01*
X535744Y19284D01*
X539284Y15744D01*
X543333Y12802D01*
X547793Y10530D01*
X552553Y8983D01*
X557497Y8200D01*
X558000D01*
Y38000D01*
D02*
G37*
G36*
X71800D02*
X42000D01*
Y8200D01*
X42503D01*
X47446Y8983D01*
X52207Y10530D01*
X56667Y12802D01*
X60716Y15744D01*
X64256Y19284D01*
X67198Y23333D01*
X69470Y27793D01*
X71017Y32554D01*
X71800Y37497D01*
Y38000D01*
D02*
G37*
G36*
X38000D02*
X8200D01*
Y37497D01*
X8983Y32554D01*
X10530Y27793D01*
X12802Y23333D01*
X15744Y19284D01*
X19284Y15744D01*
X23333Y12802D01*
X27793Y10530D01*
X32554Y8983D01*
X37497Y8200D01*
X38000D01*
Y38000D01*
D02*
G37*
G36*
X380750Y13770D02*
X379250D01*
X377864Y13196D01*
X376804Y12135D01*
X376230Y10750D01*
Y9250D01*
X376804Y7865D01*
X377864Y6804D01*
X379250Y6230D01*
X380750D01*
X382136Y6804D01*
X383196Y7865D01*
X383770Y9250D01*
Y10750D01*
X383196Y12135D01*
X382136Y13196D01*
X380750Y13770D01*
D02*
G37*
%LPD*%
G36*
X423000Y279000D02*
Y241000D01*
X422000Y240000D01*
X373000Y240000D01*
X362000Y251000D01*
X315000D01*
X314000Y252000D01*
Y268000D01*
X315000Y269000D01*
X362000D01*
X373000Y280000D01*
X422000D01*
X423000Y279000D01*
D02*
G37*
G36*
X363000Y247000D02*
X380000Y230000D01*
Y185000D01*
X379000Y184000D01*
X359000D01*
X338000Y205000D01*
Y246000D01*
X339000Y247000D01*
X363000Y247000D01*
D02*
G37*
G36*
X441000Y112000D02*
Y71000D01*
X406000Y36000D01*
X327000D01*
X326000Y37000D01*
Y113000D01*
X327000Y114000D01*
X439000D01*
X441000Y112000D01*
D02*
G37*
G36*
X229000Y257000D02*
Y227000D01*
X227000Y225000D01*
X158000D01*
X156000Y227000D01*
Y257000D01*
X158000Y259000D01*
X227000D01*
X229000Y257000D01*
D02*
G37*
G36*
X228000Y173000D02*
Y143000D01*
X226000Y141000D01*
X158000D01*
X127000Y110000D01*
X97000Y110000D01*
X95000Y112000D01*
X95000Y138000D01*
X132000Y175000D01*
X134088D01*
X134227Y174860D01*
X135963Y173859D01*
X137898Y173340D01*
X139902D01*
X141837Y173859D01*
X143573Y174860D01*
X143712Y175000D01*
X226000D01*
X228000Y173000D01*
D02*
G37*
%LPC*%
G36*
X139902Y163160D02*
X137898D01*
X135963Y162641D01*
X134227Y161639D01*
X132810Y160223D01*
X131809Y158487D01*
X131290Y156552D01*
Y154548D01*
X131809Y152613D01*
X132810Y150877D01*
X134227Y149460D01*
X135963Y148459D01*
X137898Y147940D01*
X139902D01*
X141837Y148459D01*
X143573Y149460D01*
X144990Y150877D01*
X145991Y152613D01*
X146510Y154548D01*
Y156552D01*
X145991Y158487D01*
X144990Y160223D01*
X143573Y161639D01*
X141837Y162641D01*
X139902Y163160D01*
D02*
G37*
%LPD*%
G36*
X259000Y156000D02*
Y140000D01*
X260000Y139000D01*
X282000D01*
X283000Y138000D01*
Y130000D01*
X282000Y129000D01*
X265000D01*
X210000Y74000D01*
X162000D01*
X161000Y75000D01*
Y88668D01*
X161196Y88864D01*
X161770Y90250D01*
Y91750D01*
X161196Y93135D01*
X161000Y93332D01*
Y119000D01*
X162000Y120000D01*
X234000D01*
X247000Y133000D01*
X247000Y156000D01*
X248000Y157000D01*
X258000D01*
X259000Y156000D01*
D02*
G37*
G36*
X283000Y124000D02*
Y37000D01*
X282000Y36000D01*
X229000D01*
X228000Y37000D01*
Y88000D01*
X265000Y125000D01*
X282000D01*
X283000Y124000D01*
D02*
G37*
D10*
X116000Y77000D02*
X130000Y91000D01*
X158000D01*
X335784Y282294D02*
Y316596D01*
X332000Y279000D02*
X332490D01*
X335784Y282294D01*
Y316596D02*
X349938Y330750D01*
X397500D01*
X350808Y343000D02*
X483000D01*
X330000Y290000D02*
Y322192D01*
X350808Y343000D01*
X342000Y313000D02*
X349000Y320000D01*
X497000D01*
X500000Y323000D01*
X487300Y347300D02*
Y367000D01*
X483000Y343000D02*
X487300Y347300D01*
X500000Y323000D02*
Y367000D01*
X219374Y283354D02*
Y295711D01*
X145921Y324000D02*
X191085D01*
X219374Y295711D01*
X397500Y330750D02*
X418250D01*
X420000Y329000D01*
Y361000D02*
X421750Y359250D01*
X442500D01*
X142499Y335186D02*
Y344499D01*
X143000Y345000D01*
X216520Y280500D02*
X219374Y283354D01*
X199500Y280500D02*
X216520D01*
X142580Y327341D02*
Y333420D01*
Y327341D02*
X145921Y324000D01*
X507500Y30000D02*
X507750Y30250D01*
Y49250D01*
X508500Y50000D01*
X255000Y173500D02*
X255500Y174000D01*
X255000Y167000D02*
Y173500D01*
X253000Y154000D02*
Y165000D01*
X255000Y167000D01*
X272500Y159551D02*
X273000Y159051D01*
X272500Y159551D02*
Y174000D01*
D16*
X474600Y367000D02*
D03*
D33*
X350000Y260000D02*
D03*
Y283000D02*
D03*
Y237000D02*
D03*
D34*
X412000Y260000D02*
D03*
D35*
X172500Y299500D02*
D03*
Y290000D02*
D03*
Y280500D02*
D03*
X199500D02*
D03*
Y290000D02*
D03*
Y299500D02*
D03*
D36*
X374500Y210000D02*
D03*
X391500D02*
D03*
X368500Y163000D02*
D03*
X351500D02*
D03*
X272500Y174000D02*
D03*
X255500D02*
D03*
X252500Y147000D02*
D03*
X235500D02*
D03*
X252500Y134000D02*
D03*
X235500D02*
D03*
X508500Y50000D02*
D03*
X491500D02*
D03*
D37*
X370221Y190000D02*
D03*
D38*
X392446D02*
D03*
D39*
X350000Y148500D02*
D03*
Y131500D02*
D03*
X370000D02*
D03*
Y148500D02*
D03*
X320000Y261500D02*
D03*
Y278500D02*
D03*
D40*
X327000Y133651D02*
D03*
Y146351D02*
D03*
Y159051D02*
D03*
Y120951D02*
D03*
X273000D02*
D03*
Y133651D02*
D03*
Y146351D02*
D03*
Y159051D02*
D03*
D41*
X300000Y140000D02*
D03*
D42*
X200000Y242000D02*
D03*
Y158000D02*
D03*
D43*
X170000Y26980D02*
D03*
Y93020D02*
D03*
X430000D02*
D03*
Y26980D02*
D03*
D44*
X347500Y60000D02*
D03*
X252500D02*
D03*
D45*
X227500Y320000D02*
D03*
X212500D02*
D03*
X227500Y350000D02*
D03*
X212500D02*
D03*
X227500Y380000D02*
D03*
X212500D02*
D03*
X507500Y30000D02*
D03*
X492500D02*
D03*
D46*
X98001Y335186D02*
D03*
X106000D02*
D03*
X154001D02*
D03*
X161999D02*
D03*
D47*
X117501D02*
D03*
X122499D02*
D03*
X127500D02*
D03*
X132499D02*
D03*
X137500D02*
D03*
X142499D02*
D03*
X147501D02*
D03*
X112500D02*
D03*
D48*
X512700Y367000D02*
D03*
X500000D02*
D03*
X487300D02*
D03*
D49*
X442500Y309250D02*
D03*
X397500D02*
D03*
X442500Y330750D02*
D03*
X397500D02*
D03*
Y380750D02*
D03*
X442500D02*
D03*
X397500Y359250D02*
D03*
X442500D02*
D03*
D78*
X490383Y51117D02*
X491500Y50000D01*
X490383Y51117D02*
Y69617D01*
X490000Y70000D02*
X490383Y69617D01*
X305500Y261500D02*
X320000D01*
X287000Y242858D02*
X292858Y237000D01*
X271000Y300000D02*
X287000Y284000D01*
X292858Y237000D02*
X350000D01*
X287000Y242858D02*
Y284000D01*
X240000Y300000D02*
X271000D01*
X392446Y190000D02*
X418000D01*
X427000Y103000D02*
Y181000D01*
X418000Y190000D02*
X427000Y181000D01*
X414000Y90000D02*
X427000Y103000D01*
X380000Y90000D02*
X414000D01*
X348500Y261500D02*
X350000Y260000D01*
D79*
X11500Y167000D02*
Y233000D01*
X43000D01*
X43000Y233000D01*
X512700Y275700D02*
Y367000D01*
X509000Y272000D02*
X512700Y275700D01*
X478000Y272000D02*
X509000D01*
X203000Y320000D02*
X212500D01*
X203000Y350000D02*
X212500D01*
X203000Y380000D02*
X212500D01*
X227500D02*
X237000D01*
X227500Y350000D02*
X237000D01*
X227500Y320000D02*
X237000D01*
X350000Y159000D02*
Y161500D01*
Y148500D02*
Y159000D01*
X327000Y159051D02*
X349949D01*
X350000Y159000D01*
Y147000D02*
Y148500D01*
X351500D02*
X370000D01*
X351000Y149000D02*
X351500Y148500D01*
X370000Y131000D02*
Y131500D01*
Y100000D02*
Y131000D01*
X369500Y131500D02*
X370000Y131000D01*
X350000Y131500D02*
X369500D01*
X370000Y100000D02*
X380000Y90000D01*
D80*
X185000Y272635D02*
X193722Y263914D01*
X229722D02*
X256054Y237582D01*
X193722Y263914D02*
X229722D01*
X188086Y273914D02*
X195000Y267000D01*
X231000D02*
X257332Y240668D01*
X195000Y267000D02*
X231000D01*
X256054Y237582D02*
X264557D01*
X257332Y240668D02*
X264557D01*
X266138Y242250D02*
X267000D01*
X266138Y236000D02*
X267000D01*
X264557Y237582D02*
X266138Y236000D01*
X264557Y240668D02*
X266138Y242250D01*
X185000Y272635D02*
Y303000D01*
X112500Y296500D02*
Y317500D01*
X113000Y318000D01*
X112500Y335186D02*
X112750Y334936D01*
Y318250D02*
Y334936D01*
Y318250D02*
X113000Y318000D01*
X112500Y296500D02*
X128500Y280500D01*
X177000Y320000D02*
X188086Y308914D01*
X185000Y303000D02*
Y307635D01*
X188086Y303000D02*
Y308914D01*
X175722Y316914D02*
X185000Y307635D01*
X133457Y323179D02*
Y329280D01*
X141000Y320000D02*
X177000D01*
X139722Y316914D02*
X175722D01*
X188086Y302914D02*
Y303000D01*
X171500Y280500D02*
X172000Y281000D01*
X128500Y280500D02*
X171500D01*
X129000Y345000D02*
X136524D01*
X137587Y335273D02*
Y343936D01*
X136524Y345000D02*
X137587Y343936D01*
X127500Y343500D02*
X129000Y345000D01*
X127500Y335186D02*
Y343500D01*
X122499Y327501D02*
X125000Y325000D01*
X133000D01*
X122499Y327501D02*
Y335186D01*
X188086Y273914D02*
Y302914D01*
X191500Y299500D02*
X199500D01*
X188086Y302914D02*
X191500Y299500D01*
X181500D02*
X185000Y303000D01*
X172500Y299500D02*
X181500D01*
X136543Y324457D02*
X141000Y320000D01*
X132499Y335186D02*
X133091Y334594D01*
X136543Y324457D02*
Y329280D01*
X136909Y334594D02*
X137500Y335186D01*
X136909Y329646D02*
Y334594D01*
X136543Y329280D02*
X136909Y329646D01*
X133091Y329646D02*
X133457Y329280D01*
Y323179D02*
X139722Y316914D01*
X133091Y329646D02*
Y334594D01*
D81*
X375000Y270500D02*
Y305000D01*
X381000Y311000D01*
X512350Y367350D02*
X512700Y367000D01*
X512350Y367350D02*
Y381650D01*
X512000Y382000D02*
X512350Y381650D01*
X269000Y208000D02*
X297000Y180000D01*
X406000D01*
X295000Y173000D02*
X406000D01*
X268000Y200000D02*
X295000Y173000D01*
X157950Y200000D02*
X268000D01*
X162650Y208000D02*
X269000D01*
X113500Y244450D02*
X157950Y200000D01*
X138900Y231750D02*
X162650Y208000D01*
X317000Y85005D02*
X320711Y88716D01*
X322216Y121000D02*
X328000D01*
X320711Y88716D02*
Y118069D01*
X320750Y118108D01*
Y119534D02*
X322216Y121000D01*
X320750Y118108D02*
Y119534D01*
X317000Y85000D02*
Y85005D01*
D82*
X368000Y163000D02*
X368500D01*
X364000Y159000D02*
X368000Y163000D01*
X364000Y159000D02*
Y159000D01*
X200500Y291000D02*
X206729D01*
X210729Y295000D01*
X211000D01*
X98000Y324000D02*
X98001Y324001D01*
Y335185D01*
X106000Y324000D02*
X106000Y324000D01*
Y335186D01*
X106000Y335186D01*
X98001Y335185D02*
X98001Y335186D01*
X137000Y351000D02*
X146000D01*
X107000Y336000D02*
Y344000D01*
X114000Y351000D01*
X137000D01*
X107000Y336000D02*
X107000Y336000D01*
X153001Y336186D02*
X154001Y335186D01*
X153001Y336186D02*
Y343999D01*
X146000Y351000D02*
X153001Y343999D01*
X165000Y290000D02*
X172500D01*
X199500D02*
X200500Y291000D01*
D83*
X307000Y192000D02*
D03*
X321000D02*
D03*
X307000Y206000D02*
D03*
X321000D02*
D03*
X307000Y220000D02*
D03*
X321000D02*
D03*
X300000Y199000D02*
D03*
X314000D02*
D03*
X328000D02*
D03*
X300000Y213000D02*
D03*
X328000D02*
D03*
X314000D02*
D03*
X158000Y91000D02*
D03*
X116000Y77000D02*
D03*
X342000Y313000D02*
D03*
X332000Y279000D02*
D03*
X28000Y247000D02*
D03*
X267000Y242250D02*
D03*
Y236000D02*
D03*
X38000Y193651D02*
D03*
X512000Y382000D02*
D03*
X478000Y272000D02*
D03*
X381000Y311000D02*
D03*
X330000Y290000D02*
D03*
X364000Y159000D02*
D03*
X406000Y180000D02*
D03*
Y173000D02*
D03*
X211000Y295000D02*
D03*
X203000Y320000D02*
D03*
Y350000D02*
D03*
Y380000D02*
D03*
X237000Y320000D02*
D03*
Y350000D02*
D03*
Y380000D02*
D03*
X11500Y233000D02*
D03*
X28500Y167000D02*
D03*
X11500D02*
D03*
X11000Y206351D02*
D03*
X420000Y329000D02*
D03*
Y361000D02*
D03*
X98000Y324000D02*
D03*
X106000D02*
D03*
X137000Y351000D02*
D03*
X119000D02*
D03*
X143000Y345000D02*
D03*
X135000Y310000D02*
D03*
X113000Y318000D02*
D03*
X165000Y290000D02*
D03*
X317000Y85000D02*
D03*
X194000Y89000D02*
D03*
Y99000D02*
D03*
X204000D02*
D03*
Y89000D02*
D03*
Y79000D02*
D03*
X194000D02*
D03*
X279000Y71000D02*
D03*
Y81000D02*
D03*
Y39000D02*
D03*
Y49000D02*
D03*
X380000Y90000D02*
D03*
Y10000D02*
D03*
Y20000D02*
D03*
Y30000D02*
D03*
Y40000D02*
D03*
Y50000D02*
D03*
Y60000D02*
D03*
Y70000D02*
D03*
Y80000D02*
D03*
X290000Y160000D02*
D03*
X310000D02*
D03*
X300000D02*
D03*
X310000Y120000D02*
D03*
X300000D02*
D03*
X290000D02*
D03*
X264000Y146000D02*
D03*
X253000Y154000D02*
D03*
Y141000D02*
D03*
X261000Y134000D02*
D03*
X110000Y27000D02*
D03*
X101000D02*
D03*
X119000D02*
D03*
X112000Y136000D02*
D03*
X102000D02*
D03*
Y126000D02*
D03*
X112000D02*
D03*
X158000D02*
D03*
D84*
X490000Y70000D02*
D03*
D85*
X310000Y307000D02*
D03*
D86*
X290000D02*
D03*
D87*
X486500Y155550D02*
D03*
X113500Y244450D02*
D03*
D88*
X461100Y168250D02*
D03*
X486500Y180950D02*
D03*
X461100Y193650D02*
D03*
X486500Y206350D02*
D03*
X461100Y219050D02*
D03*
X486500Y231750D02*
D03*
X461100Y244450D02*
D03*
X138900Y155550D02*
D03*
X113500Y168250D02*
D03*
X138900Y180950D02*
D03*
X113500Y193650D02*
D03*
X138900Y206350D02*
D03*
X113500Y219050D02*
D03*
X138900Y231750D02*
D03*
D89*
X550000Y142850D02*
D03*
Y257150D02*
D03*
X50000Y142850D02*
D03*
Y257150D02*
D03*
D90*
X300000Y375400D02*
D03*
X274600Y375400D02*
D03*
X274600Y350000D02*
D03*
X300000D02*
D03*
X325400D02*
D03*
D91*
X325400Y375400D02*
D03*
D92*
X101099Y347813D02*
D03*
X158899D02*
D03*
D93*
X86749Y384814D02*
D03*
X173251D02*
D03*
D94*
X86749Y342814D02*
D03*
X173251D02*
D03*
D95*
X560000Y40000D02*
D03*
X559999Y360000D02*
D03*
X40000Y40000D02*
D03*
Y360000D02*
D03*
D96*
X43000Y233000D02*
D03*
X305000Y261500D02*
D03*
X240000Y300000D02*
D03*
X398000Y270500D02*
D03*
X375000D02*
D03*
X164000Y251000D02*
D03*
Y233000D02*
D03*
M02*
